<?xml version="1.0" standalone="no"?>
<!DOCTYPE svg PUBLIC "-//W3C//DTD SVG 1.1//EN" "http://www.w3.org/Graphics/SVG/1.1/DTD/svg11.dtd" >
<svg xmlns="http://www.w3.org/2000/svg" xmlns:xlink="http://www.w3.org/1999/xlink" version="1.1">
<metadata>
Created by FontForge 20170731 at Sat Apr 24 13:34:15 2021
 By Aleksey,,,
Copyright (c) 2017 by Fax. All rights reserved.
</metadata>
<defs>
<font id="FaxSans-Beta" horiz-adv-x="1773" >
  <font-face 
    font-family="Fax Sans"
    font-weight="400"
    font-stretch="normal"
    units-per-em="2048"
    panose-1="0 0 6 3 3 0 0 2 0 3"
    ascent="1638"
    descent="-410"
    x-height="983"
    cap-height="1434"
    bbox="-113 -471 2468 1968"
    underline-thickness="163"
    underline-position="-367"
    unicode-range="U+000D-FFE6"
  />
<missing-glyph horiz-adv-x="1638" 
d="M1556 717q0 -151 -58 -287.5t-156.5 -235t-235 -156.5t-287.5 -58t-287.5 58t-235 156.5t-156.5 235t-58 287.5t58 287.5t156.5 235t235 156.5t287.5 58t287.5 -58t235 -156.5t156.5 -235t58 -287.5zM236 717q0 -157 76.5 -293.5t211.5 -218.5t295 -82q120 0 229 48.5
t186.5 129.5t123 190t45.5 226t-45.5 226t-123 190t-186.5 129.5t-229 48.5q-160 0 -295 -82t-211.5 -218.5t-76.5 -293.5zM694 1087l105 -104l-119 -119l119 -116l-105 -105l-119 117l-116 -117l-105 105l117 116l-117 119l105 104l116 -118zM1180 1087l104 -104l-119 -119
l119 -116l-104 -105l-119 117l-117 -117l-104 105l116 116l-116 119l104 104l117 -118zM819 618q136 0 236.5 -81.5t142.5 -208.5h-164q-18 31 -34.5 53t-42 44t-60.5 33t-78 11t-78 -11t-60.5 -33t-42 -44t-34.5 -53h-164q42 127 142.5 208.5t236.5 81.5z" />
    <glyph glyph-name=".notdef" horiz-adv-x="1638" 
d="M1556 717q0 -151 -58 -287.5t-156.5 -235t-235 -156.5t-287.5 -58t-287.5 58t-235 156.5t-156.5 235t-58 287.5t58 287.5t156.5 235t235 156.5t287.5 58t287.5 -58t235 -156.5t156.5 -235t58 -287.5zM236 717q0 -157 76.5 -293.5t211.5 -218.5t295 -82q120 0 229 48.5
t186.5 129.5t123 190t45.5 226t-45.5 226t-123 190t-186.5 129.5t-229 48.5q-160 0 -295 -82t-211.5 -218.5t-76.5 -293.5zM694 1087l105 -104l-119 -119l119 -116l-105 -105l-119 117l-116 -117l-105 105l117 116l-117 119l105 104l116 -118zM1180 1087l104 -104l-119 -119
l119 -116l-104 -105l-119 117l-117 -117l-104 105l116 116l-116 119l104 104l117 -118zM819 618q136 0 236.5 -81.5t142.5 -208.5h-164q-18 31 -34.5 53t-42 44t-60.5 33t-78 11t-78 -11t-60.5 -33t-42 -44t-34.5 -53h-164q42 127 142.5 208.5t236.5 81.5z" />
    <glyph glyph-name=".null" horiz-adv-x="0" 
 />
    <glyph glyph-name="nonmarkingreturn" horiz-adv-x="682" 
 />
    <glyph glyph-name="NULL" horiz-adv-x="0" 
 />
    <glyph glyph-name="NULL" horiz-adv-x="0" 
 />
    <glyph glyph-name="CR" unicode="&#xd;" horiz-adv-x="512" 
 />
    <glyph glyph-name="space" unicode=" " horiz-adv-x="512" 
 />
    <glyph glyph-name="exclam" unicode="!" horiz-adv-x="643" 
d="M174 127q0 61 43 104t105 43t104.5 -43t42.5 -104t-42.5 -104t-104.5 -43t-105 43t-43 104zM420 1434v-584l-31 -492h-133l-31 492v584h195z" />
    <glyph glyph-name="quotedbl" unicode="&#x22;" horiz-adv-x="892" 
d="M264 1454q59 0 100.5 -41.5t41.5 -99.5q0 -17 -7 -45l-80 -316h-110l-80 316q-6 24 -6 45q0 59 41.5 100t99.5 41zM629 1454q59 0 100 -41t41 -100q0 -21 -6 -45l-80 -316h-111l-79 316q-7 28 -7 45q0 58 41.5 99.5t100.5 41.5z" />
    <glyph glyph-name="numbersign" unicode="#" horiz-adv-x="1239" 
d="M72 840l30 184h250l68 410h194l-67 -410h256l67 410h195l-68 -410h242l-31 -184h-241l-39 -246h237l-28 -184h-240l-68 -410h-194l67 410h-256l-67 -410h-195l68 410h-252l29 184h254l39 246h-250zM516 840l-39 -246h256l39 246h-256z" />
    <glyph glyph-name="dollar" unicode="$" horiz-adv-x="1093" 
d="M471 -215v201q-248 30 -420 229l133 133q110 -140 287 -168v475q-62 28 -108.5 53.5t-96 63t-81 78.5t-52 97.5t-20.5 121.5q0 151 97 252.5t261 126.5v6v195h184v-203q150 -28 297 -156l-133 -133q-76 64 -164 90v-459q148 -68 206 -108q151 -105 162 -271q1 -15 1 -30
q0 -157 -103 -262t-266 -129v-203h-184zM819 379q0 68 -44 115t-120 84v-392q73 20 118.5 70t45.5 123zM317 1077q0 -115 154 -203v375q-70 -18 -112 -62t-42 -110z" />
    <glyph glyph-name="percent" unicode="%" horiz-adv-x="1771" 
d="M113 1100q0 148 103 251t249 103q148 0 251 -103t103 -251q0 -146 -103 -249t-251 -103q-146 0 -249 103t-103 249zM973 332q0 148 103 251t249 103q148 0 251 -103t103 -251q0 -146 -103 -249t-251 -103q-146 0 -249 103t-103 249zM547 0h-185l883 1434h185zM276 1100
q0 -78 56 -133.5t133 -55.5q79 0 134.5 55.5t55.5 133.5t-55.5 134t-134.5 56q-77 0 -133 -56t-56 -134zM1137 332q0 -78 55.5 -133.5t132.5 -55.5q79 0 135 55.5t56 133.5t-56 134t-135 56q-77 0 -132.5 -56t-55.5 -134z" />
    <glyph glyph-name="ampersand" unicode="&#x26;" horiz-adv-x="1331" 
d="M1116 0l-174 180q-155 -200 -403 -200q-212 0 -350 122t-138 322q0 59 15.5 111.5t35.5 87.5t60 75.5t66.5 62t78.5 60.5q-79 82 -118 150.5t-39 150.5q0 137 93.5 234.5t239.5 97.5q133 0 234.5 -94t101.5 -238q0 -56 -16 -104.5t-49 -90.5t-64 -71.5t-80 -69.5
l291 -278l143 311h205l-211 -457l344 -362h-266zM539 174q179 0 268 148l-369 360q-48 -33 -75.5 -55t-55 -53t-39.5 -67.5t-12 -82.5q0 -114 78.5 -182t204.5 -68zM483 1260q-58 0 -93.5 -39.5t-35.5 -98.5q0 -31 22 -71t42.5 -64t58.5 -65q71 54 104 99t33 101
q0 58 -36 98t-95 40z" />
    <glyph glyph-name="quotesingle" unicode="'" horiz-adv-x="528" 
d="M264 1454q59 0 100.5 -41.5t41.5 -99.5q0 -17 -7 -45l-80 -316h-110l-80 316q-6 24 -6 45q0 59 41.5 100t99.5 41z" />
    <glyph glyph-name="parenleft" unicode="(" horiz-adv-x="958" 
d="M287 492q0 96 10 184t24.5 157.5t42.5 143t51 124t63.5 117.5t67.5 107.5t75 108.5h204q-80 -113 -132 -199t-105.5 -205t-80 -252.5t-26.5 -285.5t26.5 -286t80 -252.5t105.5 -205t132 -199.5h-204q-48 68 -75 108.5t-67.5 107.5t-63.5 118t-51 124.5t-42.5 143
t-24.5 157.5t-10 184z" />
    <glyph glyph-name="parenright" unicode=")" horiz-adv-x="958" 
d="M672 492q0 -96 -10 -184t-24.5 -157.5t-42.5 -143t-51 -124.5t-63.5 -118t-67.5 -107.5t-75 -108.5h-205q80 113 132 199.5t105.5 205t80 252.5t26.5 286t-26.5 285.5t-80 252.5t-105.5 205t-132 199h205q48 -68 75 -108.5t67.5 -107.5t63.5 -117.5t51 -124t42.5 -143
t24.5 -157.5t10 -184z" />
    <glyph glyph-name="asterisk" unicode="*" horiz-adv-x="962" 
d="M399 584v174l27 155l-121 -100l-151 -88l-82 141l151 88l146 54l-146 55l-151 88l82 141l151 -88l121 -100l-27 156v174h164v-174l-26 -156l120 100l152 88l82 -141l-152 -88l-147 -55l147 -54l152 -88l-82 -141l-152 88l-120 100l26 -155v-174h-164z" />
    <glyph glyph-name="plus" unicode="+" horiz-adv-x="1105" 
d="M461 614v369h184v-369h369v-184h-369v-369h-184v369h-369v184h369z" />
    <glyph glyph-name="comma" unicode="," horiz-adv-x="550" 
d="M377 90q0 -55 -13 -107t-41.5 -101t-82.5 -79t-127 -30v82q63 0 98 37t47 94q-12 -6 -31 -6q-60 0 -102.5 43t-42.5 104q0 63 43 105t100 42q68 0 110 -50t42 -134z" />
    <glyph glyph-name="hyphen" unicode="-" horiz-adv-x="890" 
d="M154 614h583v-184h-583v184z" />
    <glyph glyph-name="period" unicode="." horiz-adv-x="643" 
d="M174 127q0 61 43 104t105 43t104.5 -43t42.5 -104t-42.5 -104t-104.5 -43t-105 43t-43 104z" />
    <glyph glyph-name="slash" unicode="/" horiz-adv-x="911" 
d="M219 0h-209l686 1434h205z" />
    <glyph glyph-name="zero" unicode="0" horiz-adv-x="1208" 
d="M922 717q0 114 -17 210.5t-52 175t-96.5 123t-142.5 44.5t-142 -44.5t-96 -123t-52 -175t-17 -210.5t17 -210.5t52 -175t96 -123t142 -44.5t142.5 44.5t96.5 123t52 175t17 210.5zM102 717q0 149 32 280t93 234t161 163t226 60t226 -60t161 -163t93 -234t32 -280
t-32 -280t-93 -234t-161 -163t-226 -60t-226 60t-161 163t-93 234t-32 280z" />
    <glyph glyph-name="one" unicode="1" horiz-adv-x="870" 
d="M92 1034v133q104 16 156.5 35.5t109.5 67.5q40 34 71.5 84t41.5 80h164v-1434h-205v1034h-338z" />
    <glyph glyph-name="two" unicode="2" horiz-adv-x="1226" 
d="M246 410q30 32 97.5 78t149 95.5t87.5 53.5q152 98 205 145q115 103 116 222q0 109 -79.5 182.5t-207.5 73.5q-139 0 -233 -82.5t-94 -235.5h-205q0 236 146 374t386 138q112 0 206 -35.5t156 -97t96 -143.5t34 -174q0 -68 -17 -128t-39.5 -101t-63.5 -83.5t-70.5 -66
t-77.5 -58.5q-69 -49 -174 -108q-94 -58 -155 -101t-90.5 -74t-40 -47.5t-20.5 -41.5h748v-195h-1045q0 231 185 410z" />
    <glyph glyph-name="three" unicode="3" horiz-adv-x="1232" 
d="M451 625v174h92q157 0 252.5 64.5t95.5 180.5q0 93 -77.5 154.5t-199.5 61.5q-139 0 -233 -78t-94 -199h-205q0 208 147.5 339.5t384.5 131.5q128 0 237.5 -50.5t177 -145.5t67.5 -214q0 -113 -63.5 -196t-172.5 -131q125 -38 195.5 -129t70.5 -209q0 -169 -139 -284
t-383 -115q-253 0 -408 139t-155 362h205q0 -135 104 -221t254 -86q130 0 224 66.5t94 158.5q0 112 -96 169t-263 57h-112z" />
    <glyph glyph-name="four" unicode="4" horiz-adv-x="1167" 
d="M922 0h-205v358h-697v134l768 942h134v-891h225v-185h-225v-358zM717 1034l-400 -491h400v491z" />
    <glyph glyph-name="five" unicode="5" horiz-adv-x="1232" 
d="M92 672l205 762h727v-185h-584l-88 -321q108 65 242 65q142 0 260.5 -69.5t185 -184.5t66.5 -247q0 -138 -65.5 -254.5t-186 -187t-270.5 -70.5q-197 0 -347 122t-165 308h194q15 -105 107 -170.5t211 -65.5q143 0 230 92t87 226q0 136 -92.5 226.5t-224.5 90.5
q-174 0 -277 -137h-215z" />
    <glyph glyph-name="six" unicode="6" horiz-adv-x="1253" 
d="M655 -20q-47 0 -92.5 7t-102 27.5t-105.5 53.5t-96.5 90t-81.5 132t-54.5 184.5t-20.5 242.5q0 336 152.5 536.5t400.5 200.5q183 0 315 -106t163 -273h-211q-27 88 -99.5 136.5t-167.5 48.5q-99 0 -175 -61t-114 -156.5t-38 -206.5q63 73 151.5 115t186.5 42
q141 0 257 -66t182 -180.5t66 -254.5q0 -217 -147.5 -364.5t-368.5 -147.5zM352 492q0 -138 86 -228t217 -90q132 0 222 90.5t90 227.5t-90 227t-222 90q-131 0 -217 -89.5t-86 -227.5z" />
    <glyph glyph-name="seven" unicode="7" horiz-adv-x="1075" 
d="M1014 1434v-185q-257 -292 -379.5 -583t-122.5 -666h-205q0 201 41 395t112 352.5t159.5 285.5t189.5 216h-727v185h932z" />
    <glyph glyph-name="eight" unicode="8" horiz-adv-x="1241" 
d="M614 -20q-245 0 -383.5 130t-138.5 330q0 220 215 369q-57 48 -95 120.5t-38 145.5q0 158 122.5 268.5t317.5 110.5t318 -110.5t123 -268.5q0 -73 -38 -145.5t-95 -120.5q215 -149 215 -369q0 -200 -139 -330t-384 -130zM614 707q-132 0 -224.5 -76.5t-92.5 -190.5
q0 -116 89.5 -191t227.5 -75t228 75.5t90 190.5q0 114 -93 190.5t-225 76.5zM614 1260q-105 0 -170 -53.5t-65 -131.5t65 -131t170 -53t170.5 53t65.5 131t-65.5 131.5t-170.5 53.5z" />
    <glyph glyph-name="nine" unicode="9" horiz-adv-x="1247" 
d="M598 1454q47 0 92.5 -7t102 -27.5t105.5 -53.5t96.5 -90t81.5 -132t54.5 -184.5t20.5 -242.5q0 -336 -152.5 -536.5t-400.5 -200.5q-183 0 -314.5 105.5t-162.5 272.5h211q27 -88 99 -136t167 -48q99 0 175 61t114.5 156.5t38.5 206.5q-63 -73 -151.5 -115.5
t-186.5 -42.5q-106 0 -200 39t-161 105.5t-106 160t-39 197.5q0 217 147.5 364.5t368.5 147.5zM901 942q0 138 -86 228t-217 90q-132 0 -221.5 -90.5t-89.5 -227.5t89.5 -227t221.5 -90q131 0 217 89.5t86 227.5z" />
    <glyph glyph-name="colon" unicode=":" horiz-adv-x="653" 
d="M184 856q0 62 43 105t105 43q61 0 104 -43t43 -105t-42.5 -104.5t-104.5 -42.5t-105 43t-43 104zM184 127q0 61 43 104t105 43t104.5 -43t42.5 -104t-42.5 -104t-104.5 -43t-105 43t-43 104z" />
    <glyph glyph-name="semicolon" unicode=";" horiz-adv-x="550" 
d="M82 856q0 62 43 105t104 43t104.5 -43t43.5 -105q0 -61 -43 -104t-105 -43q-61 0 -104 42.5t-43 104.5zM377 90q0 -55 -13 -107t-41.5 -101t-82.5 -79t-127 -30v82q63 0 98 37t47 94q-12 -6 -31 -6q-60 0 -102.5 43t-42.5 104q0 63 43 105t100 42q68 0 110 -50t42 -134z
" />
    <glyph glyph-name="less" unicode="&#x3c;" horiz-adv-x="1044" 
d="M92 430v123l850 430v-195l-573 -296l573 -297v-195z" />
    <glyph glyph-name="equal" unicode="=" horiz-adv-x="1105" 
d="M1014 799v-185h-922v185h922zM1014 430v-184h-922v184h922z" />
    <glyph glyph-name="greater" unicode="&#x3e;" horiz-adv-x="1044" 
d="M942 553v-123l-850 -430v195l574 297l-574 296v195z" />
    <glyph glyph-name="question" unicode="?" horiz-adv-x="1050" 
d="M639 465v-107h-195v156q0 64 24.5 121.5t61 97.5t79.5 81.5t79.5 75.5t61 77t24.5 88q0 102 -65 158.5t-156 56.5q-90 0 -155.5 -57t-78.5 -164l-196 26q15 167 134.5 273t295.5 106q195 0 310.5 -113t115.5 -286q0 -60 -19 -112.5t-48.5 -91t-66 -73.5t-73 -69
t-66 -68.5t-48.5 -79.5t-19 -96zM397 127q0 61 43 104t105 43q61 0 104 -43t43 -104t-43 -104t-104 -43q-62 0 -105 43t-43 104z" />
    <glyph glyph-name="at" unicode="@" horiz-adv-x="1751" 
d="M635 479q0 -90 65.5 -158.5t155.5 -68.5t156.5 68.5t66.5 158.5t-67 159t-156 69t-155 -69t-66 -159zM1126 -66l72 -137q-148 -71 -321 -71q-153 0 -292 59.5t-240.5 160.5t-161.5 240.5t-60 292.5q0 203 101.5 376.5t275 274.5t377.5 101q122 0 236.5 -38t207 -108
t162 -162.5t107.5 -207t38 -236.5q0 -191 -79.5 -309.5t-231.5 -118.5q-67 0 -123.5 37.5t-79.5 99.5q-23 -41 -96.5 -76.5t-163.5 -35.5q-162 0 -280.5 120t-118.5 283q0 162 117.5 276.5t281.5 114.5q121 0 225 -71v41h170v-492q0 -67 16.5 -105t65.5 -38q63 0 102.5 74.5
t39.5 199.5q0 158 -80.5 296t-218.5 220t-297 82t-295.5 -82t-215.5 -219.5t-79 -296.5t79 -297t215.5 -220.5t295.5 -82.5q139 0 249 55z" />
    <glyph glyph-name="A" unicode="A" horiz-adv-x="1372" 
d="M10 0l604 1434h144l604 -1434h-225l-131 317h-641l-129 -317h-226zM686 1096l-242 -584h482z" />
    <glyph glyph-name="B" unicode="B" horiz-adv-x="1292" 
d="M768 0h-594v1434h543q199 0 314.5 -115.5t115.5 -284.5q0 -162 -123 -266q100 -61 152.5 -151t52.5 -197q0 -64 -15 -122.5t-50 -113.5t-87 -95.5t-131.5 -64.5t-177.5 -24zM778 195q116 0 181 66.5t65 158.5q0 90 -64.5 152.5t-181.5 62.5h-399v-440h399zM707 1239h-328
v-410h328q111 0 173 58t62 147t-62 147t-173 58z" />
    <glyph glyph-name="C" unicode="C" horiz-adv-x="1427" 
d="M788 -20q-122 0 -233 35t-200.5 101t-155.5 155.5t-102 204t-36 241.5t36 241.5t102 204t155.5 155.5t200.5 101t233 35q298 0 523 -225l-133 -144q-158 175 -390 175q-224 0 -373 -153.5t-149 -389.5t149 -389.5t373 -153.5q129 0 241 57t190 158l153 -123
q-110 -135 -257.5 -210.5t-326.5 -75.5z" />
    <glyph glyph-name="D" unicode="D" horiz-adv-x="1474" 
d="M174 1434h512q155 0 290.5 -54.5t231 -149.5t150.5 -228t55 -285q0 -151 -55 -284t-150.5 -228t-231 -150t-290.5 -55h-512v1434zM655 195q155 0 282.5 70.5t199 190t71.5 261.5t-71.5 261.5t-199 190t-282.5 70.5h-276v-1044h276z" />
    <glyph glyph-name="E" unicode="E" horiz-adv-x="1116" 
d="M973 1434v-195h-594v-358h573v-195h-573v-491h594v-195h-799v1434h799z" />
    <glyph glyph-name="F" unicode="F" horiz-adv-x="1003" 
d="M174 1434h799v-195h-594v-358h573v-195h-573v-686h-205v1434z" />
    <glyph glyph-name="G" unicode="G" horiz-adv-x="1587" 
d="M788 1260q-224 0 -373 -153.5t-149 -389.5t149 -389.5t373 -153.5q72 0 139.5 18t128.5 57t106 94.5t71.5 136t26.5 175.5h-502v195h706v-850h-204v174q-77 -93 -198.5 -143.5t-273.5 -50.5q-122 0 -233 35t-200.5 101t-155.5 155.5t-102 204t-36 241.5t36 241.5t102 204
t155.5 155.5t200.5 101t233 35q156 0 297 -64t244 -178l-151 -137q-69 85 -172 135t-218 50z" />
    <glyph glyph-name="H" unicode="H" horiz-adv-x="1566" 
d="M1393 1434v-1434h-205v666h-809v-666h-205v1434h205v-574h809v574h205z" />
    <glyph glyph-name="I" unicode="I" horiz-adv-x="757" 
d="M154 1434h450v-195h-123v-1044h123v-195h-450v195h122v1044h-122v195z" />
    <glyph glyph-name="J" unicode="J" horiz-adv-x="940" 
d="M10 193l180 94q28 -51 76 -82t111 -31q35 0 68 11.5t65.5 37t52 76.5t19.5 121v1014h204v-994q0 -113 -30.5 -199t-74.5 -134t-103 -78t-106.5 -39.5t-94.5 -9.5q-121 0 -218.5 57t-148.5 156z" />
    <glyph glyph-name="K" unicode="K" horiz-adv-x="1300" 
d="M590 758l680 -758h-277l-614 676v-676h-205v1434h205v-594l584 594h256z" />
    <glyph glyph-name="L" unicode="L" horiz-adv-x="1034" 
d="M379 1434v-1239h625v-195h-830v1434h205z" />
    <glyph glyph-name="M" unicode="M" horiz-adv-x="1761" 
d="M942 236h-123l-440 686v-922h-205v1434h123l584 -922l583 922h123v-1434h-205v922z" />
    <glyph glyph-name="N" unicode="N" horiz-adv-x="1576" 
d="M1198 410v1024h205v-1434h-123l-901 1014v-1014h-205v1434h123z" />
    <glyph glyph-name="O" unicode="O" horiz-adv-x="1617" 
d="M1516 717q0 -158 -56.5 -296t-153.5 -234.5t-231.5 -151.5t-286.5 -55q-122 0 -233 35t-200.5 101t-155.5 155.5t-102 204t-36 241.5t36 241.5t102 204t155.5 155.5t200.5 101t233 35q152 0 286.5 -55t231.5 -151.5t153.5 -234.5t56.5 -296zM266 717q0 -236 149 -389.5
t373 -153.5t373.5 153.5t149.5 389.5t-149.5 389.5t-373.5 153.5t-373 -153.5t-149 -389.5z" />
    <glyph glyph-name="P" unicode="P" horiz-adv-x="1228" 
d="M1188 1010q0 -181 -121 -302.5t-330 -121.5h-358v-586h-205v1434h563q209 0 330 -121.5t121 -302.5zM727 1239h-348v-459h348q122 0 189 66t67 164q0 97 -67 163t-189 66z" />
    <glyph glyph-name="Q" unicode="Q" horiz-adv-x="1720" 
d="M1516 717q0 -239 -127 -428l260 -289h-256l-131 145q-201 -165 -474 -165q-122 0 -233 35t-200.5 101t-155.5 155.5t-102 204t-36 241.5t36 241.5t102 204t155.5 155.5t200.5 101t233 35q152 0 286.5 -55t231.5 -151.5t153.5 -234.5t56.5 -296zM266 717
q0 -236 149 -389.5t373 -153.5q200 0 340 121l-329 371l143 122l305 -342q64 122 64 271q0 236 -149.5 389.5t-373.5 153.5t-373 -153.5t-149 -389.5z" />
    <glyph glyph-name="R" unicode="R" horiz-adv-x="1259" 
d="M1188 1010q0 -165 -100.5 -282t-278.5 -138l451 -590h-246l-457 586h-178v-586h-205v1434h205h358q209 0 330 -121.5t121 -302.5zM727 1239h-348v-459h348q122 0 189 66t67 164q0 97 -67 163t-189 66z" />
    <glyph glyph-name="S" unicode="S" horiz-adv-x="1093" 
d="M51 215l142 137q158 -178 360 -178q107 0 186.5 55t79.5 150q0 39 -16.5 73t-39.5 56.5t-63 45.5t-69.5 35.5t-78 32t-71.5 29.5q-65 29 -111.5 54t-98 63t-84 78.5t-53.5 97t-21 121.5q0 174 127.5 281.5t322.5 107.5q65 0 125 -14.5t109.5 -41.5t83.5 -51t71 -57
l-133 -133q-117 103 -260 103q-103 0 -172.5 -48.5t-69.5 -136.5q0 -29 9.5 -55.5t23.5 -47t38.5 -41.5t45.5 -35t54.5 -31.5t55 -27t58 -25.5t53.5 -24q148 -68 206 -108q151 -105 162 -271q1 -15 1 -30q0 -179 -132 -289t-329 -110q-309 0 -512 235z" />
    <glyph glyph-name="T" unicode="T" horiz-adv-x="1064" 
d="M20 1434h1024v-195h-409v-1239h-205v1239h-410v195z" />
    <glyph glyph-name="U" unicode="U" horiz-adv-x="1536" 
d="M768 174q61 0 117 13.5t110.5 46t94 82.5t64 129.5t24.5 179.5v809h204v-846q0 -144 -49.5 -261t-134.5 -192t-195.5 -115t-234.5 -40t-234.5 40t-195.5 115t-134.5 192t-49.5 261v846h204v-809q0 -100 24.5 -179.5t64 -129.5t94 -82.5t110.5 -46t117 -13.5z" />
    <glyph glyph-name="V" unicode="V" horiz-adv-x="1310" 
d="M1300 1434l-573 -1434h-143l-574 1434h226l419 -1076l420 1076h225z" />
    <glyph glyph-name="W" unicode="W" horiz-adv-x="2048" 
d="M952 1434h144l368 -1024l348 1024h226l-502 -1434h-143l-369 1044l-369 -1044h-143l-502 1434h226l348 -1024z" />
    <glyph glyph-name="X" unicode="X" horiz-adv-x="1372" 
d="M686 932l328 502h246l-441 -676l533 -758h-256l-410 594l-410 -594h-256l533 758l-440 676h245z" />
    <glyph glyph-name="Y" unicode="Y" horiz-adv-x="1232" 
d="M616 829l375 605h232l-504 -809v-625h-205v625l-504 809h232z" />
    <glyph glyph-name="Z" unicode="Z" horiz-adv-x="1218" 
d="M72 123l788 1116h-727v195h1004v-123l-779 -1116h809v-195h-1095v123z" />
    <glyph glyph-name="bracketleft" unicode="[" horiz-adv-x="890" 
d="M287 -451v1885h512v-185h-318v-1515h318v-185h-512z" />
    <glyph glyph-name="backslash" unicode="\" horiz-adv-x="911" 
d="M901 0h-211l-680 1434h205z" />
    <glyph glyph-name="bracketright" unicode="]" horiz-adv-x="890" 
d="M604 1434v-1885h-512v185h318v1515h-318v185h512z" />
    <glyph glyph-name="asciicircum" unicode="^" horiz-adv-x="1228" 
d="M543 1434h143l430 -717h-194l-308 522l-307 -522h-194z" />
    <glyph glyph-name="underscore" unicode="_" horiz-adv-x="1024" 
d="M31 -20h962v-185h-962v185z" />
    <glyph glyph-name="grave" unicode="`" horiz-adv-x="655" 
d="M379 1137l-246 297h225l164 -297h-143z" />
    <glyph glyph-name="a" unicode="a" horiz-adv-x="1245" 
d="M82 492q0 139 67 257t183 186.5t254 68.5q173 0 311 -109v88h195v-983h-195v86q-134 -106 -311 -106q-138 0 -254 68.5t-183 186.5t-67 257zM276 492q0 -133 89 -230.5t221 -97.5q131 0 221 96.5t90 231.5q0 137 -90.5 232t-220.5 95q-131 0 -220.5 -96t-89.5 -231z" />
    <glyph glyph-name="b" unicode="b" horiz-adv-x="1245" 
d="M1163 492q0 -139 -67 -257t-183 -186.5t-254 -68.5q-180 0 -311 106v-86h-194v1434h194v-539q135 109 311 109q138 0 254 -68.5t183 -186.5t67 -257zM350 492q0 -134 88.5 -231t220.5 -97q131 0 221.5 96.5t90.5 231.5q0 137 -91 232t-221 95q-131 0 -220 -96t-89 -231z
" />
    <glyph glyph-name="c" unicode="c" horiz-adv-x="1060" 
d="M594 164q84 0 158 40.5t118 112.5l150 -106q-158 -231 -426 -231q-145 0 -263 69t-183.5 186t-65.5 257q0 139 67 257t183 186.5t254 68.5q128 0 235.5 -57t184.5 -159l-136 -122q-108 153 -284 153q-131 0 -220.5 -96t-89.5 -231q0 -132 93.5 -230t224.5 -98z" />
    <glyph glyph-name="d" unicode="d" horiz-adv-x="1245" 
d="M82 492q0 139 67 257t183 186.5t254 68.5q173 0 311 -109v539h195v-1434h-195v86q-134 -106 -311 -106q-138 0 -254 68.5t-183 186.5t-67 257zM276 492q0 -133 89 -230.5t221 -97.5q131 0 221 96.5t90 231.5q0 137 -90.5 232t-220.5 95q-131 0 -220.5 -96t-89.5 -231z
" />
    <glyph glyph-name="e" unicode="e" horiz-adv-x="1161" 
d="M367 250q40 -46 97 -71t122 -25q185 0 295 133l129 -121q-61 -85 -170.5 -135.5t-253.5 -50.5q-138 0 -254 68.5t-183 186.5t-67 257t67 257t183 186.5t254 68.5t252 -71t177.5 -188.5t63.5 -252.5q0 -13 -4 -41h-796q13 -126 88 -201zM586 819q-96 0 -171 -52.5
t-114 -141.5h555q-38 85 -108.5 139.5t-161.5 54.5z" />
    <glyph glyph-name="f" unicode="f" horiz-adv-x="804" 
d="M451 1004v-21h307v-184h-307v-799h-195v799h-215v184h215v21q0 232 101.5 341t267.5 109q78 0 153 -33l-59 -168q-43 17 -74 17q-85 0 -139.5 -63t-54.5 -203z" />
    <glyph glyph-name="g" unicode="g" horiz-adv-x="1245" 
d="M82 492q0 139 67 257t183 186.5t254 68.5q173 0 311 -109v88h195v-993q0 -168 -39 -240q-57 -108 -167 -164.5t-265 -56.5q-88 0 -167 21t-135.5 55t-96 71t-64.5 76l141 129q130 -168 322 -168q139 0 207.5 71.5t68.5 205.5v96q-134 -106 -311 -106q-138 0 -254 68.5
t-183 186.5t-67 257zM276 492q0 -133 89 -230.5t221 -97.5q131 0 221 96.5t90 231.5q0 137 -90.5 232t-220.5 95q-131 0 -220.5 -96t-89.5 -231z" />
    <glyph glyph-name="h" unicode="h" horiz-adv-x="1290" 
d="M963 0v471q0 65 -18.5 125.5t-54.5 111t-96 81t-135 30.5q-131 0 -221 -94.5t-90 -253.5v-471h-194v1434h194v-537q135 107 311 107q104 0 194.5 -37t158 -104t106.5 -168.5t39 -223.5v-471h-194z" />
    <glyph glyph-name="i" unicode="i" horiz-adv-x="499" 
d="M348 983v-983h-194v983h194zM102 1284q0 62 43.5 106t104.5 44t105 -44t44 -106q0 -61 -43.5 -104t-105.5 -43t-105 43t-43 104z" />
    <glyph glyph-name="j" unicode="j" horiz-adv-x="555" 
d="M373 983v-1030q0 -117 -29 -201.5t-82 -132t-119 -69t-149 -21.5q-46 0 -107 16l41 179q33 -11 70 -11q80 0 130 55.5t50 184.5v1030h195zM127 1284q0 62 43 106t104 44q62 0 106 -44t44 -106q0 -61 -44 -104t-106 -43t-104.5 42.5t-42.5 104.5z" />
    <glyph glyph-name="k" unicode="k" horiz-adv-x="1105" 
d="M154 0v1434h194v-848l451 397h256l-502 -461l543 -522h-256l-492 455v-455h-194z" />
    <glyph glyph-name="l" unicode="l" horiz-adv-x="501" 
d="M154 0v1434h194v-1434h-194z" />
    <glyph glyph-name="m" unicode="m" horiz-adv-x="2099" 
d="M348 471v-471h-194v983h194v-86q135 107 311 107q125 0 231 -53t173 -150q69 96 175 149.5t230 53.5q104 0 194.5 -37t158 -104t106.5 -168.5t39 -223.5v-471h-194v471q0 65 -18.5 125.5t-54.5 111t-96 81t-135 30.5q-131 0 -221 -94.5t-90 -253.5v-471h-194v471
q0 65 -18.5 125.5t-54.5 111t-96 81t-135 30.5q-131 0 -221 -94.5t-90 -253.5z" />
    <glyph glyph-name="n" unicode="n" horiz-adv-x="1290" 
d="M963 0v471q0 65 -18.5 125.5t-54.5 111t-96 81t-135 30.5q-131 0 -221 -94.5t-90 -253.5v-471h-194v983h194v-86q135 107 311 107q104 0 194.5 -37t158 -104t106.5 -168.5t39 -223.5v-471h-194z" />
    <glyph glyph-name="o" unicode="o" horiz-adv-x="1153" 
d="M72 492q0 139 66.5 257t182.5 186.5t254 68.5q139 0 255.5 -69t183.5 -186.5t67 -256.5t-67 -257t-183.5 -186.5t-255.5 -68.5q-138 0 -254 68.5t-182.5 186.5t-66.5 257zM266 492q0 -134 88.5 -231t220.5 -97q131 0 221.5 96.5t90.5 231.5q0 137 -91 232t-221 95
q-131 0 -220 -96t-89 -231z" />
    <glyph glyph-name="p" unicode="p" horiz-adv-x="1245" 
d="M1163 492q0 -139 -67 -257t-183 -186.5t-254 -68.5q-180 0 -311 106v-537h-194v1434h194v-88q135 109 311 109q138 0 254 -68.5t183 -186.5t67 -257zM969 492q0 133 -89.5 230t-220.5 97q-128 0 -217 -92t-94 -223v-12q0 -137 90.5 -232.5t220.5 -95.5q131 0 220.5 96.5
t89.5 231.5z" />
    <glyph glyph-name="q" unicode="q" horiz-adv-x="1245" 
d="M82 492q0 139 67 257t183 186.5t254 68.5q173 0 311 -109v88h195v-1434h-195v537q-134 -106 -311 -106q-138 0 -254 68.5t-183 186.5t-67 257zM276 492q0 -135 89.5 -231.5t220.5 -96.5q127 0 216.5 90.5t94.5 222.5v27q-5 131 -94 223t-217 92q-132 0 -221 -97t-89 -230
z" />
    <glyph glyph-name="r" unicode="r" horiz-adv-x="686" 
d="M645 1004v-185q-56 0 -107 -20.5t-94.5 -62t-69.5 -114.5t-26 -169v-453h-194v983h194v-96q102 117 297 117z" />
    <glyph glyph-name="s" unicode="s" horiz-adv-x="931" 
d="M72 117l102 145q142 -112 291 -112q72 0 126 30.5t54 85.5q0 25 -13 45t-30.5 33.5t-50.5 27t-58 21t-68 19.5t-67 20q-256 83 -256 275q0 80 36 140.5t93.5 93t118 48t121.5 15.5q177 0 322 -109l-105 -141q-58 39 -107.5 59.5t-109.5 20.5q-77 0 -125.5 -31t-48.5 -82
q0 -21 11 -39.5t27 -31.5t44.5 -26.5t52.5 -21.5t62 -20q81 -25 137 -49.5t107 -61t76.5 -87.5t25.5 -118q0 -89 -52 -155t-135.5 -98.5t-183.5 -32.5q-232 0 -397 137z" />
    <glyph glyph-name="t" unicode="t" horiz-adv-x="778" 
d="M20 983h226v287h194v-287h277v-184h-277v-391q0 -76 16.5 -127.5t47 -76t62 -33.5t73.5 -9q27 0 59 8l19 -178q-40 -12 -92 -12q-84 0 -149 20.5t-118.5 67.5t-82.5 133t-29 207v391h-226v184z" />
    <glyph glyph-name="u" unicode="u" horiz-adv-x="1290" 
d="M328 983v-451q0 -65 18.5 -125.5t54 -111t95.5 -81t135 -30.5q128 0 219.5 90t91.5 242v467h195v-963h-195v84q-132 -104 -311 -104q-139 0 -251 62t-179.5 184.5t-67.5 285.5v451h195z" />
    <glyph glyph-name="v" unicode="v" horiz-adv-x="1052" 
d="M526 307l297 676h209l-430 -983h-151l-431 983h209z" />
    <glyph glyph-name="w" unicode="w" horiz-adv-x="1679" 
d="M766 983h147l269 -676l268 676h209l-404 -983h-151l-264 686l-265 -686h-151l-404 983h209l269 -676z" />
    <glyph glyph-name="x" unicode="x" horiz-adv-x="1048" 
d="M287 983l235 -315l236 315h229l-340 -467l381 -516h-235l-271 362l-266 -362h-236l381 516l-346 467h232z" />
    <glyph glyph-name="y" unicode="y" horiz-adv-x="1052" 
d="M201 -451l229 533l-410 901h213l299 -670l295 670h205l-624 -1434h-207z" />
    <glyph glyph-name="z" unicode="z" horiz-adv-x="962" 
d="M889 983v-139l-539 -660h582v-184h-860v143l534 656h-504v184h787z" />
    <glyph glyph-name="braceleft" unicode="{" horiz-adv-x="911" 
d="M317 492q19 -7 39.5 -18.5t47.5 -36t48 -55.5t35.5 -80t14.5 -107v-267q0 -93 31.5 -143.5t111.5 -50.5h92v-185h-164q-121 0 -193.5 73t-72.5 214v318q0 117 -50 181t-124 64v185q74 0 124 64t50 181v318q0 141 72.5 214t193.5 73h164v-185h-92q-80 0 -111.5 -50.5
t-31.5 -143.5v-267q0 -71 -21 -128t-53.5 -90.5t-59 -51t-51.5 -26.5z" />
    <glyph glyph-name="bar" unicode="|" horiz-adv-x="419" 
d="M307 -451h-194v1885h194v-1885z" />
    <glyph glyph-name="braceright" unicode="}" horiz-adv-x="911" 
d="M614 492q-25 9 -51.5 26.5t-59 51t-53 90.5t-20.5 128v267q0 93 -31.5 143.5t-111.5 50.5h-92v185h163q121 0 194 -73t73 -214v-318q0 -117 50 -181t124 -64v-185q-74 0 -124 -64t-50 -181v-318q0 -141 -73 -214t-194 -73h-163v185h92q80 0 111.5 50.5t31.5 143.5v267
q0 58 14.5 107t35 80t48 55.5t47.5 36t39 18.5z" />
    <glyph glyph-name="asciitilde" unicode="~" horiz-adv-x="1216" 
d="M551 457q-130 65 -203 65t-126 -44t-81 -116l-100 138q60 102 136 154.5t192 52.5q65 0 125 -20.5t141 -61.5q10 -5 43.5 -23t51 -26.5t45.5 -20.5t51 -17.5t44 -5.5q69 0 114 36t91 128l103 -133q-38 -100 -119.5 -157.5t-188.5 -57.5q-32 0 -65.5 6t-71.5 20.5
t-60.5 24.5t-66 31.5t-55.5 26.5z" />
    <glyph glyph-name="exclamdown" unicode="&#xa1;" horiz-adv-x="643" 
d="M174 856q0 62 43 105t105 43q61 0 104 -43t43 -105t-42.5 -104.5t-104.5 -42.5t-105 43t-43 104zM420 133v-584h-195v584l31 492h133z" />
    <glyph glyph-name="cent" unicode="&#xa2;" horiz-adv-x="1060" 
d="M502 995v183h184v-185q190 -37 320 -205l-136 -122q-71 102 -184 139v-629q123 38 184 141l150 -106q-128 -189 -334 -223v-193h-184v193q-186 31 -303 172t-117 332q0 190 119.5 332t300.5 171zM276 492q0 -107 63.5 -195t162.5 -119v629q-100 -29 -163 -117t-63 -198z
" />
    <glyph glyph-name="sterling" unicode="&#xa3;" horiz-adv-x="1054" 
d="M82 799h113q-52 140 -52 256q0 176 118 287.5t288 111.5q178 0 290.5 -115.5t112.5 -324.5h-184q0 123 -61.5 184.5t-153.5 61.5q-83 0 -144 -56t-61 -153q0 -101 66 -252h334v-174h-267q21 -72 21 -125q0 -178 -150 -316h662v-184h-942v184q31 24 49 39t56 51.5
t60.5 67.5t41 74t18.5 84q0 58 -23 125h-192v174z" />
    <glyph glyph-name="currency" unicode="&#xa4;" horiz-adv-x="1175" 
d="M182 180l-131 131l144 144q-78 121 -78 262q0 142 78 260l-144 145l131 131l144 -145q119 80 262 80q144 0 260 -80l145 145l131 -131l-145 -145q80 -116 80 -260q0 -143 -80 -262l145 -144l-131 -131l-145 144q-118 -78 -260 -78q-141 0 -262 78zM311 717
q0 -115 80.5 -196t196.5 -81q115 0 195.5 80.5t80.5 196.5q0 115 -80 195.5t-196 80.5t-196.5 -80.5t-80.5 -195.5z" />
    <glyph glyph-name="yen" unicode="&#xa5;" horiz-adv-x="1232" 
d="M616 829l375 605h232l-416 -666h252v-174h-340v-133h340v-174h-340v-287h-205v287h-340v174h340v133h-340v174h250l-414 666h232z" />
    <glyph glyph-name="brokenbar" unicode="&#xa6;" horiz-adv-x="501" 
d="M348 645h-194v789h194v-789zM348 -451h-194v789h194v-789z" />
    <glyph glyph-name="section" unicode="&#xa7;" horiz-adv-x="1218" 
d="M791 575q-56 29 -171.5 73t-173.5 73q-159 -78 -159 -209q0 -47 21 -85t53 -63t83.5 -49.5t97.5 -40t110 -39t108 -42.5q69 27 120.5 85t51.5 111q0 68 -38.5 110t-102.5 76zM401 1077q0 -39 22 -74.5t54.5 -60.5t83.5 -51.5t94.5 -43.5t103.5 -41t95 -40
q59 -27 104 -56.5t88.5 -73t67 -105t23.5 -136.5q0 -184 -191 -311q98 -95 98 -207q0 -147 -118 -247.5t-312 -100.5q-139 0 -272 56t-225 155l137 139q61 -65 156 -110t184 -45q59 0 114 16t93.5 49.5t38.5 77.5q0 27 -14 50.5t-33.5 39.5t-53.5 32t-60 25.5t-67.5 24
t-62.5 22.5q-17 7 -68 26t-78 30t-75.5 35t-77 44.5t-64.5 53.5t-56 68.5t-34 83.5t-14 102q0 104 54 191t145 141q-84 97 -84 233q0 168 129 276.5t325 108.5q204 0 387 -160l-127 -139q-130 105 -266 105q-100 0 -172 -51t-72 -132z" />
    <glyph glyph-name="dieresis" unicode="&#xa8;" horiz-adv-x="962" 
d="M133 1284q0 63 43 106.5t105 43.5q63 0 106 -43.5t43 -106.5q0 -62 -43 -104.5t-106 -42.5q-62 0 -105 43t-43 104zM532 1284q0 63 43 106.5t105 43.5q63 0 106 -43.5t43 -106.5q0 -62 -43 -104.5t-106 -42.5q-62 0 -105 43t-43 104z" />
    <glyph glyph-name="copyright" unicode="&#xa9;" 
d="M287 717q0 -157 76.5 -293.5t211.5 -218.5t295 -82q120 0 229 48.5t186.5 129.5t123 190t45.5 226t-45.5 226t-123 190t-186.5 129.5t-229 48.5q-160 0 -295 -82t-211.5 -218.5t-76.5 -293.5zM1085 575l115 -88q-63 -79 -148 -123.5t-182 -44.5q-165 0 -279 115t-114 283
q0 173 114 291t279 118q179 0 297 -137l-96 -96q-87 90 -201 90q-105 0 -177 -75t-72 -191q0 -108 72.5 -181t176.5 -73q135 0 215 112zM1608 717q0 -202 -98.5 -371.5t-268 -267.5t-371.5 -98q-151 0 -287.5 58t-235 156.5t-156.5 235t-58 287.5t58 287.5t156.5 235
t235 156.5t287.5 58q202 0 371.5 -98t268 -267.5t98.5 -371.5z" />
    <glyph glyph-name="ordfeminine" unicode="&#xaa;" horiz-adv-x="839" 
d="M92 1120q0 138 95.5 236t230.5 98q101 0 178 -53v43h152v-645h-152v41q-80 -52 -178 -52q-135 0 -230.5 97.5t-95.5 234.5zM246 1120q0 -77 50.5 -132.5t123.5 -55.5q74 0 125 55.5t51 132.5q0 78 -51 134.5t-125 56.5q-73 0 -123.5 -57t-50.5 -134z" />
    <glyph glyph-name="guillemotleft" unicode="&#xab;" horiz-adv-x="1169" 
d="M348 492l318 -410h-226l-286 358v103l286 358h226zM758 492l317 -410h-225l-287 358v103l287 358h225z" />
    <glyph glyph-name="logicalnot" unicode="&#xac;" horiz-adv-x="1167" 
d="M881 276v359h-809v184h1003v-543h-194z" />
    <glyph glyph-name="registered" unicode="&#xae;" 
d="M1167 881q0 -85 -47 -144.5t-133 -81.5l242 -317h-185l-227 309h-59v-309h-144v778h304q116 0 182.5 -66t66.5 -169zM911 983h-153v-203h153q57 0 85 29t28 72t-28 72.5t-85 29.5zM287 717q0 -157 76.5 -293.5t211.5 -218.5t295 -82q120 0 229 48.5t186.5 129.5t123 190
t45.5 226t-45.5 226t-123 190t-186.5 129.5t-229 48.5q-160 0 -295 -82t-211.5 -218.5t-76.5 -293.5zM1608 717q0 -202 -98.5 -371.5t-268 -267.5t-371.5 -98q-151 0 -287.5 58t-235 156.5t-156.5 235t-58 287.5t58 287.5t156.5 235t235 156.5t287.5 58q202 0 371.5 -98
t268 -267.5t98.5 -371.5z" />
    <glyph glyph-name="macron" unicode="&#xaf;" horiz-adv-x="962" 
d="M133 1434h696v-174h-696v174z" />
    <glyph glyph-name="degree" unicode="&#xb0;" horiz-adv-x="808" 
d="M72 1120q0 138 96.5 236t234.5 98t236 -98t98 -236t-98 -235t-236 -97t-234.5 97t-96.5 235zM225 1120q0 -74 52.5 -126t125.5 -52q74 0 127.5 52.5t53.5 125.5t-53.5 126.5t-127.5 53.5q-73 0 -125.5 -53t-52.5 -127z" />
    <glyph glyph-name="plusminus" unicode="&#xb1;" horiz-adv-x="1105" 
d="M461 737v307h184v-307h369v-184h-369v-307h-184v307h-369v184h369zM1014 184v-184h-922v184h922z" />
    <glyph glyph-name="twosuperior" unicode="&#xb2;" horiz-adv-x="659" 
d="M150 946q39 42 159 119q34 22 52 35t40.5 32.5t32.5 39t10 40.5q0 41 -29 70t-75 29q-54 0 -88.5 -41t-34.5 -115h-154q0 137 76 218t201 81q119 0 188.5 -69t69.5 -173q0 -35 -8.5 -66t-19.5 -51.5t-33 -43t-36 -33.5t-40 -31q-26 -19 -92.5 -61.5t-87.5 -65.5h305v-143
h-535q0 130 99 229z" />
    <glyph glyph-name="threesuperior" unicode="&#xb3;" horiz-adv-x="651" 
d="M31 979h151q3 -61 43 -100t97 -39t90.5 24.5t33.5 59.5q0 88 -153 88h-60v127h60q57 0 96 22.5t39 63.5q0 35 -29 60.5t-75 25.5q-50 0 -85 -34t-38 -89h-154q3 118 79 192t198 74q111 0 184.5 -62.5t73.5 -166.5q0 -44 -21.5 -83t-56.5 -65q96 -61 96 -153
q0 -100 -73.5 -164t-209.5 -64q-123 0 -203 79t-83 204z" />
    <glyph glyph-name="acute" unicode="&#xb4;" horiz-adv-x="655" 
d="M522 1434l-246 -297h-143l164 297h225z" />
    <glyph glyph-name="mu" unicode="&#xb5;" horiz-adv-x="1310" 
d="M348 1004v-472q0 -65 18.5 -125.5t54 -111t95.5 -81t135 -30.5q130 0 221 94t91 254v472h194v-984h-194v84q-132 -104 -312 -104q-175 0 -303 96v-547h-194v1455h194z" />
    <glyph glyph-name="paragraph" unicode="&#xb6;" horiz-adv-x="1423" 
d="M578 1434h753v-185h-194v-1700h-195v1700h-215v-1700h-195v1014q-215 0 -348 117t-133 311q0 98 31.5 178t94.5 140t165 92.5t236 32.5z" />
    <glyph glyph-name="periodcentered" unicode="&#xb7;" horiz-adv-x="663" 
d="M184 492q0 61 43 104t105 43t104.5 -42.5t42.5 -104.5t-43 -105t-104 -43q-62 0 -105 43t-43 105z" />
    <glyph glyph-name="cedilla" unicode="&#xb8;" horiz-adv-x="768" 
d="M393 -471q-19 0 -40.5 3t-63 14.5t-83.5 43.5t-73 80l82 82q60 -69 143 -69q45 0 74 20t29 51t-35 51.5t-90 20.5q-47 0 -90 -19l-82 60l133 143h143l-98 -98q27 6 68 6q92 0 158.5 -48.5t66.5 -135.5q0 -82 -66 -143.5t-176 -61.5z" />
    <glyph glyph-name="onesuperior" unicode="&#xb9;" horiz-adv-x="456" 
d="M51 1188v115q66 11 105.5 31t54.5 42t25 58h129v-717h-154v471h-160z" />
    <glyph glyph-name="ordmasculine" unicode="&#xba;" horiz-adv-x="847" 
d="M424 932q79 0 128.5 53t49.5 133q0 85 -49.5 139t-128.5 54t-128.5 -54t-49.5 -139q0 -80 49.5 -133t128.5 -53zM424 1454q144 0 238 -97t94 -237q0 -139 -94 -235.5t-238 -96.5t-238 96.5t-94 235.5q0 140 94 237t238 97z" />
    <glyph glyph-name="guillemotright" unicode="&#xbb;" horiz-adv-x="1169" 
d="M481 82l318 410l-318 409h226l286 -358v-103l-286 -358h-226zM72 82l317 410l-317 409h225l287 -358v-103l-287 -358h-225z" />
    <glyph glyph-name="onequarter" unicode="&#xbc;" horiz-adv-x="1253" 
d="M293 0h-184l882 1434h185zM1116 0h-153v139h-328v101l377 477h104v-434h113v-144h-113v-139zM51 1188v115q66 11 105.5 31t54.5 42t25 58h129v-717h-154v471h-160zM963 416l-109 -133h109v133z" />
    <glyph glyph-name="onehalf" unicode="&#xbd;" horiz-adv-x="1394" 
d="M293 0h-184l882 1434h185zM905 229q38 40 160 119q44 28 68 46t45.5 46t21.5 56q0 41 -29 69.5t-75 28.5q-54 0 -88.5 -41t-34.5 -115h-154q0 137 76 218t201 81q119 0 188.5 -69t69.5 -172q0 -44 -11 -79t-34.5 -63t-41 -44t-50.5 -40q-27 -20 -93.5 -62t-87.5 -65h305
v-143h-534q0 131 98 229zM51 1188v115q66 11 105.5 31t54.5 42t25 58h129v-717h-154v471h-160z" />
    <glyph glyph-name="threequarters" unicode="&#xbe;" horiz-adv-x="1372" 
d="M432 0h-184l882 1434h185zM31 979h151q3 -61 43 -100t97 -39t90.5 24.5t33.5 59.5q0 88 -153 88h-60v127h60q57 0 96 22.5t39 63.5q0 35 -29 60.5t-75 25.5q-50 0 -85 -34t-38 -89h-154q3 118 79 192t198 74q111 0 184.5 -62.5t73.5 -166.5q0 -44 -21.5 -83t-56.5 -65
q96 -61 96 -153q0 -100 -73.5 -164t-209.5 -64q-123 0 -203 79t-83 204zM1255 0h-153v139h-328v101l377 477h104v-434h113v-144h-113v-139zM1102 416l-109 -133h109v133z" />
    <glyph glyph-name="questiondown" unicode="&#xbf;" horiz-adv-x="1050" 
d="M412 625v-107q0 -51 -19 -96t-48.5 -79.5t-66 -68.5t-73 -69t-66 -73.5t-48.5 -91t-19 -112.5q0 -173 115.5 -286t310.5 -113q176 0 295.5 106t134.5 273l-197 26q-13 -108 -78 -164.5t-155 -56.5q-91 0 -156.5 56.5t-65.5 158.5q0 45 24.5 88t61 77t79.5 75.5t79.5 81.5
t61 97.5t24.5 121.5v156h-194zM653 856q0 -62 -42.5 -104.5t-104.5 -42.5t-105 43t-43 104q0 62 43 105t105 43q61 0 104 -43t43 -105z" />
    <glyph glyph-name="Agrave" unicode="&#xc0;" horiz-adv-x="1413" 
d="M31 0l604 1434h143l604 -1434h-225l-131 317h-641l-129 -317h-225zM707 1096l-242 -584h481zM614 1536l-245 297h225l164 -297h-144z" />
    <glyph glyph-name="Aacute" unicode="&#xc1;" horiz-adv-x="1413" 
d="M31 0l604 1434h143l604 -1434h-225l-131 317h-641l-129 -317h-225zM707 1096l-242 -584h481zM1044 1833l-245 -297h-144l164 297h225z" />
    <glyph glyph-name="Acircumflex" unicode="&#xc2;" horiz-adv-x="1413" 
d="M635 1434l-604 -1434h225l129 317h641l131 -317h225l-604 1434h-143zM465 512l242 584l239 -584h-481zM594 1833h225l236 -297h-185l-163 174l-164 -174h-185z" />
    <glyph glyph-name="Atilde" unicode="&#xc3;" horiz-adv-x="1413" 
d="M31 0l604 1434h143l604 -1434h-225l-131 317h-641l-129 -317h-225zM707 1096l-242 -584h481zM481 1536h-143q2 51 13 93.5t34 80.5t66 60t102 22q47 0 123 -37q2 -1 14.5 -7.5t15 -7.5t13.5 -6.5t14.5 -7t13 -5t15 -5t13 -3.5t14.5 -2.5t14 -0.5q34 0 57.5 20.5
t30.5 61.5h143q-5 -111 -57 -183.5t-158 -72.5q-67 0 -164 51q-64 31 -94 31q-69 0 -80 -82z" />
    <glyph glyph-name="Adieresis" unicode="&#xc4;" horiz-adv-x="1413" 
d="M635 1434l-604 -1434h225l129 317h641l131 -317h225l-604 1434h-143zM465 512l242 584l239 -584h-481zM758 1683q0 63 42.5 106.5t104.5 43.5q63 0 106.5 -43.5t43.5 -106.5q0 -62 -43.5 -104.5t-106.5 -42.5q-61 0 -104 43t-43 104zM358 1683q0 63 43 106.5t105 43.5
q63 0 106 -43.5t43 -106.5q0 -62 -43 -104.5t-106 -42.5q-62 0 -105 43t-43 104z" />
    <glyph glyph-name="Aring" unicode="&#xc5;" horiz-adv-x="1413" 
d="M635 1434l-604 -1434h225l129 317h641l131 -317h225l-604 1434h-143zM479 1743q0 93 67 159t161 66t159.5 -65.5t65.5 -159.5t-65.5 -160.5t-159.5 -66.5t-161 66.5t-67 160.5zM465 512l242 584l239 -584h-481zM614 1743q0 -38 27.5 -65t65.5 -27t65 27t27 65t-27 65
t-65 27t-65.5 -27t-27.5 -65z" />
    <glyph glyph-name="AE" unicode="&#xc6;" horiz-adv-x="1935" 
d="M1792 1434v-195h-594v-358h574v-195h-574v-491h594v-195h-799v317h-557l-190 -317h-236l871 1434h911zM993 1243l-440 -731h440v731z" />
    <glyph glyph-name="Ccedilla" unicode="&#xc7;" horiz-adv-x="1427" 
d="M813 -471q-19 0 -40.5 3t-63 14.5t-83.5 43.5t-73 80l82 82q60 -69 143 -69q45 0 74 20t29 51t-35 51.5t-90 20.5q-47 0 -90 -19l-82 60l108 119q-135 16 -251.5 77t-200 155.5t-131.5 223.5t-48 275q0 127 36 241.5t102 204t155.5 155.5t200.5 101t233 35
q298 0 523 -225l-133 -144q-158 175 -390 175q-224 0 -373 -153.5t-149 -389.5t149 -389.5t373 -153.5q129 0 241 57t190 158l153 -123q-103 -127 -240 -201t-303 -83l-67 -70q27 6 67 6q92 0 159 -48.5t67 -135.5q0 -82 -66 -143.5t-176 -61.5z" />
    <glyph glyph-name="Egrave" unicode="&#xc8;" horiz-adv-x="1116" 
d="M174 1434h799v-195h-594v-358h573v-195h-573v-491h594v-195h-799v1434zM532 1536l-245 297h225l164 -297h-144z" />
    <glyph glyph-name="Eacute" unicode="&#xc9;" horiz-adv-x="1116" 
d="M174 1434h799v-195h-594v-358h573v-195h-573v-491h594v-195h-799v1434zM881 1833l-246 -297h-143l163 297h226z" />
    <glyph glyph-name="Ecircumflex" unicode="&#xca;" horiz-adv-x="1116" 
d="M174 1434h799v-195h-594v-358h573v-195h-573v-491h594v-195h-799v1434zM461 1833h225l236 -297h-185l-164 174l-163 -174h-185z" />
    <glyph glyph-name="Edieresis" unicode="&#xcb;" horiz-adv-x="1136" 
d="M993 1434v-195h-594v-358h574v-195h-574v-491h594v-195h-798v1434h798zM666 1683q0 63 42.5 106.5t104.5 43.5q63 0 106.5 -43.5t43.5 -106.5q0 -62 -43.5 -104.5t-106.5 -42.5q-61 0 -104 43t-43 104zM266 1683q0 63 43 106.5t105 43.5q63 0 106 -43.5t43 -106.5
q0 -62 -43 -104.5t-106 -42.5q-62 0 -105 43t-43 104z" />
    <glyph glyph-name="Igrave" unicode="&#xcc;" horiz-adv-x="757" 
d="M154 1434h450v-195h-123v-1044h123v-195h-450v195h122v1044h-122v195zM328 1536l-246 297h225l164 -297h-143z" />
    <glyph glyph-name="Iacute" unicode="&#xcd;" horiz-adv-x="757" 
d="M154 1434h450v-195h-123v-1044h123v-195h-328v1239h-122v195zM676 1833l-246 -297h-143l164 297h225zM154 195h122v-195h-122v195z" />
    <glyph glyph-name="Icircumflex" unicode="&#xce;" horiz-adv-x="757" 
d="M154 1434h450v-195h-123v-1044h123v-195h-450v195h122v1044h-122v195zM266 1833h226l235 -297h-184l-164 174l-164 -174h-184z" />
    <glyph glyph-name="Idieresis" unicode="&#xcf;" horiz-adv-x="757" 
d="M154 1434h450v-195h-123v-1044h123v-195h-450v195h122v1044h-122v195zM430 1683q0 63 43 106.5t105 43.5q63 0 106 -43.5t43 -106.5q0 -62 -43 -104.5t-106 -42.5q-62 0 -105 43t-43 104zM31 1683q0 63 42.5 106.5t104.5 43.5q63 0 106.5 -43.5t43.5 -106.5
q0 -62 -43.5 -104.5t-106.5 -42.5q-62 0 -104.5 43t-42.5 104z" />
    <glyph glyph-name="Eth" unicode="&#xd0;" horiz-adv-x="1454" 
d="M154 1434h512q155 0 290.5 -54.5t231 -149.5t150.5 -228t55 -285q0 -151 -55 -284t-150.5 -228t-231 -150t-290.5 -55h-512v696h-174v195h174v543zM635 195q155 0 282.5 70.5t199 190t71.5 261.5t-71.5 261.5t-199 190t-282.5 70.5h-277v-348h420v-195h-420v-501h277z
" />
    <glyph glyph-name="Ntilde" unicode="&#xd1;" horiz-adv-x="1576" 
d="M594 1536h-143q2 51 13 93.5t34 80.5t66 60t102 22q46 0 122 -37q2 -1 14.5 -7.5t15 -7.5t13.5 -6.5t14.5 -7t13 -5t15 -5t13 -3.5t14.5 -2.5t14 -0.5q34 0 58 20.5t31 61.5h143q-5 -111 -57 -183.5t-158 -72.5q-67 0 -164 51q-64 31 -94 31q-69 0 -80 -82zM1198 410
v1024h205v-1434h-123l-901 1014v-1014h-205v1434h123z" />
    <glyph glyph-name="Ograve" unicode="&#xd2;" horiz-adv-x="1617" 
d="M717 1536l-246 297h225l164 -297h-143zM1516 717q0 -158 -56.5 -296t-153.5 -234.5t-231.5 -151.5t-286.5 -55q-122 0 -233 35t-200.5 101t-155.5 155.5t-102 204t-36 241.5t36 241.5t102 204t155.5 155.5t200.5 101t233 35q152 0 286.5 -55t231.5 -151.5t153.5 -234.5
t56.5 -296zM266 717q0 -236 149 -389.5t373 -153.5t373.5 153.5t149.5 389.5t-149.5 389.5t-373.5 153.5t-373 -153.5t-149 -389.5z" />
    <glyph glyph-name="Oacute" unicode="&#xd3;" horiz-adv-x="1617" 
d="M1106 1833l-246 -297h-143l164 297h225zM1516 717q0 -158 -56.5 -296t-153.5 -234.5t-231.5 -151.5t-286.5 -55q-122 0 -233 35t-200.5 101t-155.5 155.5t-102 204t-36 241.5t36 241.5t102 204t155.5 155.5t200.5 101t233 35q152 0 286.5 -55t231.5 -151.5t153.5 -234.5
t56.5 -296zM266 717q0 -236 149 -389.5t373 -153.5t373.5 153.5t149.5 389.5t-149.5 389.5t-373.5 153.5t-373 -153.5t-149 -389.5z" />
    <glyph glyph-name="Ocircumflex" unicode="&#xd4;" horiz-adv-x="1617" 
d="M676 1833h225l236 -297h-185l-164 174l-163 -174h-185zM1516 717q0 -158 -56.5 -296t-153.5 -234.5t-231.5 -151.5t-286.5 -55q-122 0 -233 35t-200.5 101t-155.5 155.5t-102 204t-36 241.5t36 241.5t102 204t155.5 155.5t200.5 101t233 35q152 0 286.5 -55t231.5 -151.5
t153.5 -234.5t56.5 -296zM266 717q0 -236 149 -389.5t373 -153.5t373.5 153.5t149.5 389.5t-149.5 389.5t-373.5 153.5t-373 -153.5t-149 -389.5z" />
    <glyph glyph-name="Otilde" unicode="&#xd5;" horiz-adv-x="1617" 
d="M573 1536h-143q2 51 13 93.5t34 80.5t66 60t102 22q47 0 123 -37q2 -1 14.5 -7.5t15 -7.5t13.5 -6.5t14.5 -7t13 -5t15 -5t13 -3.5t14.5 -2.5t14 -0.5q34 0 57.5 20.5t30.5 61.5h143q-5 -111 -57 -183.5t-158 -72.5q-66 0 -163 51q-64 31 -95 31q-69 0 -80 -82zM1516 717
q0 -158 -56.5 -296t-153.5 -234.5t-231.5 -151.5t-286.5 -55q-122 0 -233 35t-200.5 101t-155.5 155.5t-102 204t-36 241.5t36 241.5t102 204t155.5 155.5t200.5 101t233 35q152 0 286.5 -55t231.5 -151.5t153.5 -234.5t56.5 -296zM266 717q0 -236 149 -389.5t373 -153.5
t373.5 153.5t149.5 389.5t-149.5 389.5t-373.5 153.5t-373 -153.5t-149 -389.5z" />
    <glyph glyph-name="Odieresis" unicode="&#xd6;" horiz-adv-x="1617" 
d="M440 1683q0 63 43 106.5t105 43.5q63 0 106 -43.5t43 -106.5q0 -62 -43 -104.5t-106 -42.5q-62 0 -105 43t-43 104zM840 1683q0 63 42.5 106.5t104.5 43.5q63 0 106.5 -43.5t43.5 -106.5q0 -62 -43.5 -104.5t-106.5 -42.5q-61 0 -104 43t-43 104zM1516 717
q0 -158 -56.5 -296t-153.5 -234.5t-231.5 -151.5t-286.5 -55q-122 0 -233 35t-200.5 101t-155.5 155.5t-102 204t-36 241.5t36 241.5t102 204t155.5 155.5t200.5 101t233 35q152 0 286.5 -55t231.5 -151.5t153.5 -234.5t56.5 -296zM266 717q0 -236 149 -389.5t373 -153.5
t373.5 153.5t149.5 389.5t-149.5 389.5t-373.5 153.5t-373 -153.5t-149 -389.5z" />
    <glyph glyph-name="multiply" unicode="&#xd7;" horiz-adv-x="1073" 
d="M414 528l-291 289l125 125l289 -289l290 289l123 -123l-288 -291l288 -288l-123 -123l-290 289l-289 -289l-123 123z" />
    <glyph glyph-name="Oslash" unicode="&#xd8;" horiz-adv-x="1617" 
d="M1536 717q0 -127 -36 -241.5t-102 -204t-155.5 -155.5t-200.5 -101t-233 -35q-221 0 -397 112l-95 -112h-256l201 237q-180 205 -180 500q0 127 36 241.5t102 204t155.5 155.5t200.5 101t233 35q217 0 397 -113l94 113h256l-200 -240q180 -202 180 -497zM1331 717
q0 197 -108 340l-682 -813q121 -70 268 -70q224 0 373 153.5t149 389.5zM287 717q0 -199 106 -342l684 813q-119 72 -268 72q-224 0 -373 -153.5t-149 -389.5z" />
    <glyph glyph-name="Ugrave" unicode="&#xd9;" horiz-adv-x="1536" 
d="M717 1536l-246 297h225l164 -297h-143zM768 174q61 0 117 13.5t110.5 46t94 82.5t64 129.5t24.5 179.5v809h204v-846q0 -144 -49.5 -261t-134.5 -192t-195.5 -115t-234.5 -40t-234.5 40t-195.5 115t-134.5 192t-49.5 261v846h204v-809q0 -100 24.5 -179.5t64 -129.5
t94 -82.5t110.5 -46t117 -13.5z" />
    <glyph glyph-name="Uacute" unicode="&#xda;" horiz-adv-x="1536" 
d="M1085 1833l-245 -297h-144l164 297h225zM768 174q61 0 117 13.5t110.5 46t94 82.5t64 129.5t24.5 179.5v809h204v-846q0 -144 -49.5 -261t-134.5 -192t-195.5 -115t-234.5 -40t-234.5 40t-195.5 115t-134.5 192t-49.5 261v846h204v-809q0 -100 24.5 -179.5t64 -129.5
t94 -82.5t110.5 -46t117 -13.5z" />
    <glyph glyph-name="Ucircumflex" unicode="&#xdb;" horiz-adv-x="1536" 
d="M655 1833h226l235 -297h-184l-164 174l-164 -174h-184zM768 174q61 0 117 13.5t110.5 46t94 82.5t64 129.5t24.5 179.5v809h204v-846q0 -144 -49.5 -261t-134.5 -192t-195.5 -115t-234.5 -40t-234.5 40t-195.5 115t-134.5 192t-49.5 261v846h204v-809q0 -100 24.5 -179.5
t64 -129.5t94 -82.5t110.5 -46t117 -13.5z" />
    <glyph glyph-name="Udieresis" unicode="&#xdc;" horiz-adv-x="1536" 
d="M420 1683q0 63 42.5 106.5t104.5 43.5q63 0 106.5 -43.5t43.5 -106.5q0 -62 -43.5 -104.5t-106.5 -42.5q-61 0 -104 43t-43 104zM819 1683q0 63 43 106.5t105 43.5q63 0 106 -43.5t43 -106.5q0 -62 -43 -104.5t-106 -42.5q-62 0 -105 43t-43 104zM768 174q61 0 117 13.5
t110.5 46t94 82.5t64 129.5t24.5 179.5v809h204v-846q0 -144 -49.5 -261t-134.5 -192t-195.5 -115t-234.5 -40t-234.5 40t-195.5 115t-134.5 192t-49.5 261v846h204v-809q0 -100 24.5 -179.5t64 -129.5t94 -82.5t110.5 -46t117 -13.5z" />
    <glyph glyph-name="Yacute" unicode="&#xdd;" horiz-adv-x="1232" 
d="M616 829l375 605h232l-504 -809v-625h-205v625l-504 809h232zM932 1833l-246 -297h-143l164 297h225z" />
    <glyph glyph-name="Thorn" unicode="&#xde;" horiz-adv-x="1157" 
d="M358 522h287q127 0 186.5 59t59.5 146q0 86 -59.5 145.5t-186.5 59.5h-287v-410zM358 1126h297q106 0 191 -32t139 -87.5t82.5 -127t28.5 -152.5q0 -170 -116 -284.5t-325 -114.5h-297v-328h-204v1434h204v-308z" />
    <glyph glyph-name="germandbls" unicode="&#xdf;" horiz-adv-x="1269" 
d="M522 717v194h41q80 0 140 20.5t93 55.5t48.5 75t15.5 85q0 93 -68 159t-167 66q-47 0 -89 -15t-78 -46t-57.5 -86t-21.5 -129v-1096h-205v1096q0 229 125 350t326 121q190 0 315 -121t125 -299q0 -84 -36.5 -165t-96.5 -132q124 -54 200 -168.5t76 -251.5
q0 -206 -134 -328t-357 -122q-111 0 -195 34v205q30 -21 81 -33t93 -12q135 0 221.5 68t86.5 188q0 129 -89 208t-260 79h-133z" />
    <glyph glyph-name="agrave" unicode="&#xe0;" horiz-adv-x="1255" 
d="M82 492q0 139 67 257t183 186.5t254 68.5q173 0 311 -109v88h195v-983h-195v86q-134 -106 -311 -106q-138 0 -254 68.5t-183 186.5t-67 257zM276 492q0 -133 89 -230.5t221 -97.5q131 0 221 96.5t90 231.5q0 137 -90.5 232t-220.5 95q-131 0 -220.5 -96t-89.5 -231z
M614 1137l-245 297h225l164 -297h-144z" />
    <glyph glyph-name="aacute" unicode="&#xe1;" horiz-adv-x="1245" 
d="M82 492q0 139 67 257t183 186.5t254 68.5q173 0 311 -109v88h195v-983h-195v86q-134 -106 -311 -106q-138 0 -254 68.5t-183 186.5t-67 257zM276 492q0 -133 89 -230.5t221 -97.5q128 0 217 91.5t94 221.5v27q-5 132 -94.5 223.5t-216.5 91.5q-131 0 -220.5 -96
t-89.5 -231zM860 1434l-246 -297h-143l164 297h225z" />
    <glyph glyph-name="acircumflex" unicode="&#xe2;" horiz-adv-x="1245" 
d="M82 492q0 139 67 257t183 186.5t254 68.5q173 0 311 -109v88h195v-983h-195v86q-134 -106 -311 -106q-138 0 -254 68.5t-183 186.5t-67 257zM276 492q0 -133 89 -230.5t221 -97.5q131 0 221 96.5t90 231.5v12q-5 132 -94.5 223.5t-216.5 91.5q-131 0 -220.5 -96
t-89.5 -231zM481 1434h226l235 -297h-184l-164 174l-164 -174h-184z" />
    <glyph glyph-name="atilde" unicode="&#xe3;" horiz-adv-x="1245" 
d="M82 492q0 139 67 257t183 186.5t254 68.5q173 0 311 -109v88h195v-983h-195v86q-134 -106 -311 -106q-138 0 -254 68.5t-183 186.5t-67 257zM276 492q0 -133 89 -230.5t221 -97.5q131 0 221 96.5t90 231.5q0 137 -90.5 232t-220.5 95q-131 0 -220.5 -96t-89.5 -231z
M379 1147h-143q2 51 13 93.5t34 80.5t66 60t102 22q46 0 122 -37q2 -1 14.5 -7.5t15 -7.5t13.5 -6.5t14.5 -7t13 -5t15 -5t13 -3.5t14.5 -2.5t14 -0.5q34 0 57.5 20.5t30.5 61.5h144q-5 -111 -57 -183.5t-158 -72.5q-67 0 -164 51q-64 31 -94 31q-69 0 -80 -82z" />
    <glyph glyph-name="adieresis" unicode="&#xe4;" horiz-adv-x="1245" 
d="M82 492q0 139 67 257t183 186.5t254 68.5q173 0 311 -109v88h195v-983h-195v86q-134 -106 -311 -106q-138 0 -254 68.5t-183 186.5t-67 257zM276 492q0 -133 89 -230.5t221 -97.5q128 0 217 91.5t94 221.5v27q-5 132 -94.5 223.5t-216.5 91.5q-131 0 -220.5 -96
t-89.5 -231zM655 1264q0 63 43 106t105 43q63 0 106 -43t43 -106q0 -62 -43 -105t-106 -43q-61 0 -104.5 43t-43.5 105zM256 1264q0 63 42.5 106t104.5 43q63 0 106.5 -43t43.5 -106q0 -62 -43.5 -105t-106.5 -43q-61 0 -104 43t-43 105z" />
    <glyph glyph-name="aring" unicode="&#xe5;" horiz-adv-x="1245" 
d="M82 492q0 139 67 257t183 186.5t254 68.5q173 0 311 -109v88h195v-983h-195v86q-134 -106 -311 -106q-138 0 -254 68.5t-183 186.5t-67 257zM276 492q0 -133 89 -230.5t221 -97.5q128 0 217 91.5t94 221.5v27q-5 132 -94.5 223.5t-216.5 91.5q-131 0 -220.5 -96
t-89.5 -231zM387 1290q0 94 66.5 160t160.5 66t160 -66t66 -160t-66 -160.5t-160 -66.5t-160.5 66.5t-66.5 160.5zM522 1290q0 -38 27 -65t65 -27t65.5 27t27.5 65t-27.5 65t-65.5 27t-65 -27t-27 -65z" />
    <glyph glyph-name="ae" unicode="&#xe6;" horiz-adv-x="1976" 
d="M586 1004q173 0 311 -109v88h195v-88q138 109 311 109q138 0 251.5 -71t176.5 -188.5t63 -252.5q0 -13 -4 -41h-796q14 -130 99.5 -213.5t207.5 -83.5q185 0 295 133l129 -121q-61 -85 -170.5 -135.5t-253.5 -50.5q-178 0 -309 106v-86h-195v86q-134 -106 -311 -106
q-138 0 -254 68.5t-183 186.5t-67 257t67 257t183 186.5t254 68.5zM1401 819q-96 0 -171 -52.5t-114 -141.5h555q-38 85 -108.5 139.5t-161.5 54.5zM276 492q0 -133 89 -230.5t221 -97.5q131 0 221 96.5t90 231.5q0 137 -90.5 232t-220.5 95q-131 0 -220.5 -96t-89.5 -231z
" />
    <glyph glyph-name="ccedilla" unicode="&#xe7;" horiz-adv-x="1060" 
d="M639 -471q-19 0 -40.5 3t-63 14.5t-83.5 43.5t-73 80l82 82q60 -69 143 -69q45 0 74 20t29 51t-35 51.5t-90 20.5q-47 0 -90 -19l-82 60l108 119q-192 25 -314 168t-122 338q0 139 67 257t183 186.5t254 68.5q128 0 235.5 -57t184.5 -159l-136 -122q-108 153 -284 153
q-131 0 -220.5 -96t-89.5 -231q0 -132 93.5 -230t224.5 -98q84 0 158 40.5t118 112.5l150 -106q-138 -203 -361 -227l-71 -72q27 6 67 6q92 0 159 -48.5t67 -135.5q0 -82 -66 -143.5t-176 -61.5z" />
    <glyph glyph-name="egrave" unicode="&#xe8;" horiz-adv-x="1161" 
d="M367 250q40 -46 97 -71t122 -25q185 0 295 133l129 -121q-61 -85 -170.5 -135.5t-253.5 -50.5q-138 0 -254 68.5t-183 186.5t-67 257t67 257t183 186.5t254 68.5t252 -71t177.5 -188.5t63.5 -252.5q0 -13 -4 -41h-796q13 -126 88 -201zM586 819q-96 0 -171 -52.5
t-114 -141.5h555q-38 85 -108.5 139.5t-161.5 54.5zM522 1137l-246 297h226l164 -297h-144z" />
    <glyph glyph-name="eacute" unicode="&#xe9;" horiz-adv-x="1161" 
d="M367 250q40 -46 97 -71t122 -25q185 0 295 133l129 -121q-61 -85 -170.5 -135.5t-253.5 -50.5q-138 0 -254 68.5t-183 186.5t-67 257t67 257t183 186.5t254 68.5t252 -71t177.5 -188.5t63.5 -252.5q0 -13 -4 -41h-796q13 -126 88 -201zM586 819q-96 0 -171 -52.5
t-114 -141.5h555q-38 85 -108.5 139.5t-161.5 54.5zM911 1434l-245 -297h-144l164 297h225z" />
    <glyph glyph-name="ecircumflex" unicode="&#xea;" horiz-adv-x="1161" 
d="M367 250q-75 75 -88 201h796q4 28 4 41q0 135 -63.5 252.5t-177.5 188.5t-252 71t-254 -68.5t-183 -186.5t-67 -257t67 -257t183 -186.5t254 -68.5q144 0 253.5 50.5t170.5 135.5l-129 121q-110 -133 -295 -133q-65 0 -122 25t-97 71zM586 819q91 0 161.5 -54.5
t108.5 -139.5h-555q39 89 114 141.5t171 52.5zM473 1434h225l236 -297h-184l-164 174l-164 -174h-184z" />
    <glyph glyph-name="edieresis" unicode="&#xeb;" horiz-adv-x="1161" 
d="M367 250q-75 75 -88 201h796q4 28 4 41q0 135 -63.5 252.5t-177.5 188.5t-252 71t-254 -68.5t-183 -186.5t-67 -257t67 -257t183 -186.5t254 -68.5q144 0 253.5 50.5t170.5 135.5l-129 121q-110 -133 -295 -133q-65 0 -122 25t-97 71zM586 819q91 0 161.5 -54.5
t108.5 -139.5h-555q39 89 114 141.5t171 52.5zM236 1264q0 63 42.5 106t104.5 43q63 0 106 -43t43 -106q0 -62 -43 -105t-106 -43q-61 0 -104 43t-43 105zM635 1264q0 63 42.5 106t104.5 43q63 0 106.5 -43t43.5 -106q0 -62 -43.5 -105t-106.5 -43q-61 0 -104 43t-43 105z
" />
    <glyph glyph-name="igrave" unicode="&#xec;" horiz-adv-x="501" 
d="M348 983v-983h-194v983h194zM184 1137l-245 297h225l164 -297h-144z" />
    <glyph glyph-name="iacute" unicode="&#xed;" horiz-adv-x="501" 
d="M348 983v-983h-194v983h194zM563 1434l-246 -297h-143l164 297h225z" />
    <glyph glyph-name="icircumflex" unicode="&#xee;" horiz-adv-x="532" 
d="M154 1434h225l235 -297h-184l-164 174l-164 -174h-184zM365 983v-983h-195v983h195z" />
    <glyph glyph-name="idieresis" unicode="&#xef;" horiz-adv-x="532" 
d="M365 983v-983h-195v983h195zM-82 1264q0 63 43 106t105 43q63 0 106 -43t43 -106q0 -62 -43 -105t-106 -43q-62 0 -105 43t-43 105zM317 1264q0 63 43 106t105 43q63 0 106 -43t43 -106q0 -62 -43 -105t-106 -43q-61 0 -104.5 43t-43.5 105z" />
    <glyph glyph-name="eth" unicode="&#xf0;" horiz-adv-x="1173" 
d="M276 492q0 -133 89 -230.5t221 -97.5q131 0 221 96.5t90 231.5q0 137 -90.5 232t-220.5 95q-131 0 -220.5 -96t-89.5 -231zM991 809q52 -87 76.5 -161t24.5 -156q0 -139 -67 -257t-183.5 -186.5t-255.5 -68.5q-138 0 -254 68.5t-183 186.5t-67 257t67 257t183 186.5
t254 68.5q7 0 47 -5l-139 213l-164 -104l-92 141l163 105l-120 182h227l53 -82l164 105l92 -142l-164 -104q26 -39 115 -168.5t145 -213.5t78 -122z" />
    <glyph glyph-name="ntilde" unicode="&#xf1;" horiz-adv-x="1290" 
d="M963 0v471q0 65 -18.5 125.5t-54.5 111t-96 81t-135 30.5q-129 0 -220 -90.5t-91 -241.5v-487h-194v983h194v-86q135 107 311 107q104 0 194.5 -37t158 -104t106.5 -168.5t39 -223.5v-471h-194zM430 1147h-143q2 51 13 93.5t34 80.5t66 60t102 22q47 0 123 -37
q2 -1 14.5 -7.5t15 -7.5t13.5 -6.5t14.5 -7t13 -5t15 -5t13 -3.5t14.5 -2.5t14 -0.5q34 0 57.5 20.5t30.5 61.5h143q-5 -111 -57 -183.5t-158 -72.5q-67 0 -164 51q-64 31 -94 31q-69 0 -80 -82z" />
    <glyph glyph-name="ograve" unicode="&#xf2;" horiz-adv-x="1153" 
d="M72 492q0 139 66.5 257t182.5 186.5t254 68.5q139 0 255.5 -69t183.5 -186.5t67 -256.5t-67 -257t-183.5 -186.5t-255.5 -68.5q-138 0 -254 68.5t-182.5 186.5t-66.5 257zM266 492q0 -134 88.5 -231t220.5 -97q131 0 221.5 96.5t90.5 231.5q0 137 -91 232t-221 95
q-131 0 -220 -96t-89 -231zM502 1137l-246 297h225l164 -297h-143z" />
    <glyph glyph-name="oacute" unicode="&#xf3;" horiz-adv-x="1153" 
d="M72 492q0 139 66.5 257t182.5 186.5t254 68.5q139 0 255.5 -69t183.5 -186.5t67 -256.5t-67 -257t-183.5 -186.5t-255.5 -68.5q-138 0 -254 68.5t-182.5 186.5t-66.5 257zM266 492q0 -134 88.5 -231t220.5 -97q131 0 221.5 96.5t90.5 231.5q0 137 -91 232t-221 95
q-131 0 -220 -96t-89 -231zM891 1434l-246 -297h-143l164 297h225z" />
    <glyph glyph-name="ocircumflex" unicode="&#xf4;" horiz-adv-x="1153" 
d="M72 492q0 139 66.5 257t182.5 186.5t254 68.5q139 0 255.5 -69t183.5 -186.5t67 -256.5t-67 -257t-183.5 -186.5t-255.5 -68.5q-138 0 -254 68.5t-182.5 186.5t-66.5 257zM266 492q0 -134 88.5 -231t220.5 -97q131 0 221.5 96.5t90.5 231.5q0 137 -91 232t-221 95
q-131 0 -220 -96t-89 -231zM463 1434h225l236 -297h-185l-164 174l-163 -174h-185z" />
    <glyph glyph-name="otilde" unicode="&#xf5;" horiz-adv-x="1153" 
d="M72 492q0 139 66.5 257t182.5 186.5t254 68.5q139 0 255.5 -69t183.5 -186.5t67 -256.5t-67 -257t-183.5 -186.5t-255.5 -68.5q-138 0 -254 68.5t-182.5 186.5t-66.5 257zM266 492q0 -134 88.5 -231t220.5 -97q131 0 221.5 96.5t90.5 231.5q0 137 -91 232t-221 95
q-131 0 -220 -96t-89 -231zM369 1147h-144q2 51 13 93.5t34 80.5t66 60t102 22q47 0 123 -37q2 -1 14.5 -7.5t15 -7.5t13.5 -6.5t14.5 -7t13 -5t15 -5t13 -3.5t14.5 -2.5t14 -0.5q34 0 57.5 20.5t30.5 61.5h144q-5 -111 -57 -183.5t-158 -72.5q-67 0 -164 51q-64 31 -94 31
q-69 0 -80 -82z" />
    <glyph glyph-name="odieresis" unicode="&#xf6;" horiz-adv-x="1153" 
d="M72 492q0 139 66.5 257t182.5 186.5t254 68.5q139 0 255.5 -69t183.5 -186.5t67 -256.5t-67 -257t-183.5 -186.5t-255.5 -68.5q-138 0 -254 68.5t-182.5 186.5t-66.5 257zM266 492q0 -134 88.5 -231t220.5 -97q131 0 221.5 96.5t90.5 231.5q0 137 -91 232t-221 95
q-131 0 -220 -96t-89 -231zM229 1264q0 63 43 106t105 43q63 0 106 -43t43 -106q0 -62 -43 -105t-106 -43q-61 0 -104.5 43t-43.5 105zM629 1264q0 63 42.5 106t104.5 43q63 0 106.5 -43t43.5 -106q0 -62 -43.5 -105t-106.5 -43q-61 0 -104 43t-43 105z" />
    <glyph glyph-name="divide" unicode="&#xf7;" horiz-adv-x="1105" 
d="M406 856q0 62 43 105t104 43t104 -43t43 -105t-43 -104.5t-104 -42.5t-104 42.5t-43 104.5zM1014 614v-184h-922v184h922zM406 188q0 62 43 105t104 43t104 -43t43 -105t-43 -104.5t-104 -42.5t-104 42.5t-43 104.5z" />
    <glyph glyph-name="oslash" unicode="&#xf8;" horiz-adv-x="1153" 
d="M1081 1004l-131 -168q131 -147 131 -344q0 -139 -67 -257t-183.5 -186.5t-255.5 -68.5q-128 0 -241 61l-47 -61h-215l129 167q-129 145 -129 345q0 139 66.5 257t182.5 186.5t254 68.5q130 0 242 -64l49 64h215zM266 492q0 -103 56 -191l380 490q-61 28 -127 28
q-131 0 -220 -96t-89 -231zM887 492q0 105 -58 188l-378 -490q53 -26 124 -26q131 0 221.5 96.5t90.5 231.5z" />
    <glyph glyph-name="ugrave" unicode="&#xf9;" horiz-adv-x="1290" 
d="M328 983v-451q0 -65 18.5 -125.5t54 -111t95.5 -81t135 -30.5q130 0 220.5 94t90.5 254v451h195v-963h-195v84q-132 -104 -311 -104q-139 0 -251 62t-179.5 184.5t-67.5 285.5v451h195zM563 1137l-246 297h226l164 -297h-144z" />
    <glyph glyph-name="uacute" unicode="&#xfa;" horiz-adv-x="1290" 
d="M328 983v-451q0 -65 18.5 -125.5t54 -111t95.5 -81t135 -30.5q128 0 219.5 90t91.5 242v467h195v-963h-195v84q-132 -104 -311 -104q-139 0 -251 62t-179.5 184.5t-67.5 285.5v451h195zM952 1434l-245 -297h-144l164 297h225z" />
    <glyph glyph-name="ucircumflex" unicode="&#xfb;" horiz-adv-x="1290" 
d="M328 983v-451q0 -65 18.5 -125.5t54 -111t95.5 -81t135 -30.5q130 0 220.5 94t90.5 254v451h195v-963h-195v84q-132 -104 -311 -104q-139 0 -251 62t-179.5 184.5t-67.5 285.5v451h195zM512 1434h225l236 -297h-185l-163 174l-164 -174h-185z" />
    <glyph glyph-name="udieresis" unicode="&#xfc;" horiz-adv-x="1290" 
d="M328 983v-451q0 -65 18.5 -125.5t54 -111t95.5 -81t135 -30.5q128 0 219.5 90t91.5 242v467h195v-963h-195v84q-132 -104 -311 -104q-139 0 -251 62t-179.5 184.5t-67.5 285.5v451h195zM666 1264q0 63 42.5 106t104.5 43q63 0 106.5 -43t43.5 -106q0 -62 -43.5 -105
t-106.5 -43q-61 0 -104 43t-43 105zM266 1264q0 63 43 106t105 43q63 0 106 -43t43 -106q0 -62 -43 -105t-106 -43q-62 0 -105 43t-43 105z" />
    <glyph glyph-name="yacute" unicode="&#xfd;" horiz-adv-x="1052" 
d="M201 -451l229 533l-410 901h213l299 -670l295 670h205l-624 -1434h-207zM840 1434l-246 -297h-143l163 297h226z" />
    <glyph glyph-name="thorn" unicode="&#xfe;" horiz-adv-x="1245" 
d="M1163 492q0 -139 -67 -257t-183 -186.5t-254 -68.5q-180 0 -311 106v-537h-194v1885h194v-539q135 109 311 109q138 0 254 -68.5t183 -186.5t67 -257zM969 492q0 135 -89.5 231t-220.5 96q-127 0 -216.5 -91.5t-94.5 -223.5v-12q0 -135 90 -231.5t221 -96.5t220.5 97.5
t89.5 230.5z" />
    <glyph glyph-name="ydieresis" unicode="&#xff;" horiz-adv-x="1042" 
d="M201 -451l229 533l-410 901h213l299 -670l295 670h205l-624 -1434h-207zM184 1264q0 63 43 106t105 43q63 0 106 -43t43 -106q0 -62 -43 -105t-106 -43q-62 0 -105 43t-43 105zM584 1264q0 63 42.5 106t104.5 43q63 0 106.5 -43t43.5 -106q0 -62 -43.5 -105t-106.5 -43
q-61 0 -104 43t-43 105z" />
    <glyph glyph-name="dotlessi" unicode="&#x131;" horiz-adv-x="501" 
d="M348 983v-983h-194v983h194z" />
    <glyph glyph-name="Lslash" unicode="&#x141;" horiz-adv-x="1034" 
d="M-41 502v225l215 125v582h205v-463l338 196v-225l-338 -197v-550h625v-195h-830v627z" />
    <glyph glyph-name="lslash" unicode="&#x142;" horiz-adv-x="542" 
d="M584 1090v-216l-215 -124v-750h-195v637l-215 -125v215l215 125v582h195v-469z" />
    <glyph glyph-name="OE" unicode="&#x152;" horiz-adv-x="2252" 
d="M1311 1434h798v-195h-593v-358h573v-195h-573v-491h593v-195h-798v193q-99 -102 -234 -157.5t-289 -55.5q-122 0 -233 35t-200.5 101t-155.5 155.5t-102 204t-36 241.5t36 241.5t102 204t155.5 155.5t200.5 101t233 35q153 0 288 -56t235 -157v193zM266 717
q0 -236 149 -389.5t373 -153.5t373.5 153.5t149.5 389.5t-149.5 389.5t-373.5 153.5t-373 -153.5t-149 -389.5z" />
    <glyph glyph-name="oe" unicode="&#x153;" horiz-adv-x="1974" 
d="M586 1004q124 0 230.5 -56t176.5 -153q70 97 177 153t229 56q138 0 252 -71t177.5 -188.5t63.5 -252.5q0 -13 -4 -41h-796q14 -130 99.5 -213.5t207.5 -83.5q185 0 295 133l129 -121q-61 -85 -170.5 -135.5t-253.5 -50.5q-125 0 -231.5 55t-174.5 151
q-70 -97 -176.5 -151.5t-230.5 -54.5q-138 0 -254 68.5t-183 186.5t-67 257t67 257t183 186.5t254 68.5zM1399 819q-96 0 -171 -52.5t-114 -141.5h555q-38 85 -108.5 139.5t-161.5 54.5zM276 492q0 -133 89 -230.5t221 -97.5q131 0 221 96.5t90 231.5q0 137 -90.5 232
t-220.5 95q-131 0 -220.5 -96t-89.5 -231z" />
    <glyph glyph-name="Scaron" unicode="&#x160;" horiz-adv-x="1093" 
d="M676 1536h-225l-236 297h184l164 -174l164 174h184zM51 215l142 137q158 -178 360 -178q107 0 186.5 55t79.5 150q0 39 -16.5 73t-39.5 56.5t-63 45.5t-69.5 35.5t-78 32t-71.5 29.5q-65 29 -111.5 54t-98 63t-84 78.5t-53.5 97t-21 121.5q0 174 127.5 281.5t322.5 107.5
q65 0 125 -14.5t109.5 -41.5t83.5 -51t71 -57l-133 -133q-117 103 -260 103q-103 0 -172.5 -48.5t-69.5 -136.5q0 -29 9.5 -55.5t23.5 -47t38.5 -41.5t45.5 -35t54.5 -31.5t55 -27t58 -25.5t53.5 -24q148 -68 206 -108q151 -105 162 -271q1 -15 1 -30q0 -179 -132 -289
t-329 -110q-309 0 -512 235z" />
    <glyph glyph-name="scaron" unicode="&#x161;" horiz-adv-x="931" 
d="M174 262l-102 -145q165 -137 397 -137q100 0 183.5 32.5t135.5 98.5t52 155q0 67 -25.5 118t-76.5 87.5t-107 61t-137 49.5q-38 12 -62 20t-52.5 21.5t-44.5 26.5t-27 31.5t-11 39.5q0 51 48.5 82t125.5 31q60 0 109.5 -20.5t107.5 -59.5l105 141q-145 109 -322 109
q-61 0 -121.5 -15.5t-118 -48t-93.5 -93t-36 -140.5q0 -192 256 -275q24 -8 67 -20t68 -19.5t58 -21t50.5 -27t30.5 -33.5t13 -45q0 -55 -54 -85.5t-126 -30.5q-149 0 -291 112zM584 1137h-226l-235 297h184l164 -174l164 174h184z" />
    <glyph glyph-name="Ydieresis" unicode="&#x178;" horiz-adv-x="1232" 
d="M616 829l375 605h232l-504 -809v-625h-205v625l-504 809h232zM668 1683q0 63 42.5 106.5t104.5 43.5q63 0 106.5 -43.5t43.5 -106.5q0 -62 -43.5 -104.5t-106.5 -42.5q-61 0 -104 43t-43 104zM268 1683q0 63 43 106.5t105 43.5q63 0 106 -43.5t43 -106.5
q0 -62 -43 -104.5t-106 -42.5q-62 0 -105 43t-43 104z" />
    <glyph glyph-name="Zcaron" unicode="&#x17d;" horiz-adv-x="1218" 
d="M758 1536h-226l-235 297h184l164 -174l164 174h184zM72 123l788 1116h-727v195h1004v-123l-779 -1116h809v-195h-1095v123z" />
    <glyph glyph-name="zcaron" unicode="&#x17e;" horiz-adv-x="962" 
d="M889 844v139h-787v-184h504l-534 -656v-143h860v184h-582zM625 1137h-226l-235 297h184l164 -174l164 174h184z" />
    <glyph glyph-name="florin" unicode="&#x192;" horiz-adv-x="1075" 
d="M102 707v184h334q12 78 35 174q42 166 123 256q120 133 317 133q75 0 154 -31l-61 -168q-54 15 -93 15q-107 0 -170 -72q-46 -54 -75 -164q-17 -58 -33 -143h340v-184h-365q-8 -69 -28.5 -261t-38 -316t-39.5 -212q-41 -162 -123 -256q-56 -62 -138.5 -97.5t-179.5 -35.5
q-74 0 -153 31l55 172q59 -19 98 -19q107 0 170 72q50 59 78 164q21 75 37.5 186t37.5 312.5t28 259.5h-310z" />
    <glyph glyph-name="circumflex" unicode="&#x2c6;" horiz-adv-x="962" 
d="M369 1434h225l235 -297h-184l-164 174l-164 -174h-184z" />
    <glyph glyph-name="caron" unicode="&#x2c7;" horiz-adv-x="962" 
d="M594 1137h-225l-236 297h184l164 -174l164 174h184z" />
    <glyph glyph-name="breve" unicode="&#x2d8;" horiz-adv-x="860" 
d="M430 1311q59 0 96 37.5t37 85.5h164q0 -52 -18 -101.5t-53 -91.5t-93.5 -68t-132.5 -26t-132.5 26t-93.5 68t-53 91.5t-18 101.5h164q0 -48 37 -85.5t96 -37.5z" />
    <glyph glyph-name="dotaccent" unicode="&#x2d9;" horiz-adv-x="561" 
d="M133 1307q0 61 43 104t105 43q61 0 104 -43t43 -104q0 -62 -43 -105t-104 -43t-104.5 43.5t-43.5 104.5z" />
    <glyph glyph-name="ring" unicode="&#x2da;" horiz-adv-x="718" 
d="M133 1290q0 94 66.5 160t160.5 66t160 -66t66 -160t-66 -160.5t-160 -66.5t-160.5 66.5t-66.5 160.5zM268 1290q0 -38 27 -65t65 -27t65.5 27t27.5 65t-27.5 65t-65.5 27t-65 -27t-27 -65z" />
    <glyph glyph-name="ogonek" unicode="&#x2db;" horiz-adv-x="768" 
d="M307 10h195q-85 -68 -129.5 -120t-44.5 -95q0 -42 29.5 -62t72.5 -20q61 0 123 62l82 -82q-110 -164 -268 -164q-96 0 -165 58.5t-69 154.5q0 79 46 141.5t128 126.5z" />
    <glyph glyph-name="tilde" unicode="&#x2dc;" horiz-adv-x="983" 
d="M276 1147h-143q2 51 13 93.5t34 80.5t66 60t102 22q47 0 123 -37q2 -1 14.5 -7.5t15 -7.5t13.5 -6.5t14.5 -7t13 -5t15 -5t13 -3.5t14.5 -2.5t14 -0.5q34 0 57.5 20.5t30.5 61.5h143q-5 -111 -57 -183.5t-158 -72.5q-66 0 -163 51q-64 31 -95 31q-69 0 -80 -82z" />
    <glyph glyph-name="hungarumlaut" unicode="&#x2dd;" horiz-adv-x="1044" 
d="M563 1434l-246 -297h-143l164 297h225zM911 1434l-245 -297h-144l164 297h225z" />
    <glyph glyph-name="pi" unicode="&#x3c0;" horiz-adv-x="1290" 
d="M10 799v184h1239v-184h-276v-379q0 -140 48.5 -198t145.5 -58q34 0 72 10v-184q-38 -10 -82 -10q-184 0 -281.5 105t-97.5 335v379h-307v-799h-195v799h-266z" />
    <glyph glyph-name="endash" unicode="&#x2013;" horiz-adv-x="1003" 
d="M31 614h942v-184h-942v184z" />
    <glyph glyph-name="emdash" unicode="&#x2014;" horiz-adv-x="1617" 
d="M31 614h1556v-184h-1556v184z" />
    <glyph glyph-name="quoteleft" unicode="&#x2018;" horiz-adv-x="479" 
d="M92 1137q0 55 13 107t41.5 101t82.5 79t127 30v-82q-63 0 -98 -37t-47 -94q12 6 31 6q60 0 102.5 -43t42.5 -104q0 -63 -43 -105.5t-100 -42.5q-68 0 -110 50.5t-42 134.5z" />
    <glyph glyph-name="quoteright" unicode="&#x2019;" horiz-adv-x="479" 
d="M387 1270q0 -43 -7.5 -85t-26.5 -85t-48 -75t-76 -52.5t-106 -20.5v82q63 0 98 37t47 94q-12 -6 -30 -6q-60 0 -103 43.5t-43 104.5q0 63 43.5 105t100.5 42q68 0 109.5 -50t41.5 -134z" />
    <glyph glyph-name="quotesinglbase" unicode="&#x201a;" horiz-adv-x="458" 
d="M377 90q0 -55 -13 -107t-41.5 -101t-82.5 -79t-127 -30v82q63 0 98 37t47 94q-12 -6 -31 -6q-60 0 -102.5 43t-42.5 104q0 63 43 105t100 42q68 0 110 -50t42 -134z" />
    <glyph glyph-name="quotedblleft" unicode="&#x201c;" horiz-adv-x="878" 
d="M492 1137q0 55 13 107t41.5 101t82.5 79t127 30v-82q-63 0 -98.5 -37t-47.5 -94q12 6 31 6q60 0 102.5 -43t42.5 -104q0 -63 -43 -105.5t-100 -42.5q-68 0 -109.5 50.5t-41.5 134.5zM92 1137q0 55 13 107t41.5 101t82.5 79t127 30v-82q-63 0 -98 -37t-47 -94q12 6 31 6
q60 0 102.5 -43t42.5 -104q0 -63 -43 -105.5t-100 -42.5q-68 0 -110 50.5t-42 134.5z" />
    <glyph glyph-name="quotedblright" unicode="&#x201d;" horiz-adv-x="878" 
d="M387 1270q0 -43 -7.5 -85t-26.5 -85t-48 -75t-76 -52.5t-106 -20.5v82q63 0 98 37t47 94q-12 -6 -30 -6q-60 0 -103 43.5t-43 104.5q0 63 43.5 105t100.5 42q68 0 109.5 -50t41.5 -134zM786 1270q0 -43 -7.5 -85t-26.5 -85t-48 -75t-76 -52.5t-106 -20.5v82q63 0 98.5 37
t47.5 94q-12 -6 -31 -6q-60 0 -102.5 43.5t-42.5 104.5q0 63 43 105t100 42q68 0 109.5 -50t41.5 -134z" />
    <glyph glyph-name="quotedblbase" unicode="&#x201e;" horiz-adv-x="878" 
d="M387 90q0 -55 -13 -107t-41.5 -101t-82.5 -79t-127 -30v82q63 0 98 37t47 94q-12 -6 -30 -6q-60 0 -103 43t-43 104q0 63 43.5 105t100.5 42q68 0 109.5 -50t41.5 -134zM786 90q0 -55 -13 -107t-41.5 -101t-82.5 -79t-127 -30v82q63 0 98.5 37t47.5 94q-12 -6 -31 -6
q-60 0 -102.5 43t-42.5 104q0 63 43 105t100 42q68 0 109.5 -50t41.5 -134z" />
    <glyph glyph-name="dagger" unicode="&#x2020;" horiz-adv-x="1187" 
d="M92 983h400v451h204v-451h400v-195h-400v-1239h-204v1239h-400v195z" />
    <glyph glyph-name="daggerdbl" unicode="&#x2021;" horiz-adv-x="1187" 
d="M92 983h400v451h204v-451h400v-195h-400v-317h400v-195h-400v-727h-204v727h-400v195h400v317h-400v195z" />
    <glyph glyph-name="bullet" unicode="&#x2022;" horiz-adv-x="1167" 
d="M584 922q177 0 303.5 -126.5t126.5 -303.5t-126.5 -304t-303.5 -127t-303.5 127t-126.5 304t126.5 303.5t303.5 126.5z" />
    <glyph glyph-name="ellipsis" unicode="&#x2026;" horiz-adv-x="1771" 
d="M205 127q0 61 42.5 104t104.5 43t105 -43t43 -104t-43 -104t-105 -43t-104.5 43t-42.5 104zM754 127q0 61 43 104t104 43q62 0 105 -43t43 -104t-43 -104t-105 -43q-61 0 -104 43t-43 104zM1303 127q0 61 42.5 104t104.5 43t104.5 -43t42.5 -104t-42.5 -104t-104.5 -43
t-104.5 43t-42.5 104z" />
    <glyph glyph-name="perthousand" unicode="&#x2030;" horiz-adv-x="2560" 
d="M113 1100q0 148 103 251t249 103q148 0 251 -103t103 -251q0 -146 -103 -249t-251 -103q-146 0 -249 103t-103 249zM973 332q0 148 103 251t249 103q148 0 251 -103t103 -251q0 -146 -103 -249t-251 -103q-146 0 -249 103t-103 249zM547 0h-185l883 1434h185zM276 1100
q0 -78 56 -133.5t133 -55.5q79 0 134.5 55.5t55.5 133.5t-55.5 134t-134.5 56q-77 0 -133 -56t-56 -134zM1137 332q0 -78 55.5 -133.5t132.5 -55.5q79 0 135 55.5t56 133.5t-56 134t-135 56q-77 0 -132.5 -56t-55.5 -134zM1761 332q0 148 103.5 251t249.5 103
q148 0 251 -103t103 -251q0 -146 -103 -249t-251 -103q-146 0 -249.5 103t-103.5 249zM1925 332q0 -78 56 -133.5t133 -55.5q79 0 134.5 55.5t55.5 133.5t-55.5 134t-134.5 56q-77 0 -133 -56t-56 -134z" />
    <glyph glyph-name="minute" unicode="&#x2032;" horiz-adv-x="430" 
d="M369 1454l-185 -297h-123l123 297h185z" />
    <glyph glyph-name="second" unicode="&#x2033;" horiz-adv-x="716" 
d="M369 1454l-185 -297h-123l123 297h185zM655 1454l-184 -297h-123l123 297h184z" />
    <glyph glyph-name="guilsinglleft" unicode="&#x2039;" horiz-adv-x="733" 
d="M154 459v108l272 334h236l-316 -387l316 -389h-236z" />
    <glyph glyph-name="guilsinglright" unicode="&#x203a;" horiz-adv-x="733" 
d="M580 567v-108l-273 -334h-235l315 389l-315 387h235z" />
    <glyph glyph-name="fraction" unicode="&#x2044;" horiz-adv-x="1087" 
d="M195 0h-185l883 1434h184z" />
    <glyph glyph-name="franc" unicode="&#x20a3;" horiz-adv-x="1003" 
d="M0 502h174v932h799v-195h-594v-358h573v-195h-573v-184h307v-195h-307v-307h-205v307h-174v195z" />
    <glyph glyph-name="lira" unicode="&#x20a4;" horiz-adv-x="1054" 
d="M82 922h78q-17 73 -17 133q0 176 118 287.5t288 111.5q178 0 290.5 -115.5t112.5 -324.5h-184q0 123 -61.5 184.5t-153.5 61.5q-83 0 -144 -56t-61 -153q0 -50 21 -129h379v-174h-312q26 -59 43 -113h269v-174h-248q-15 -158 -148 -277h662v-184h-942v184q29 23 43.5 35
t49.5 44.5t56 59t42.5 64.5t29.5 74h-211v174h188q-9 22 -28.5 60t-26.5 53h-133v174z" />
    <glyph glyph-name="peseta" unicode="&#x20a7;" horiz-adv-x="1433" 
d="M72 1106h164v328h563q179 0 294 -91t146 -237h154v-184h-152q-29 -149 -145 -242.5t-297 -93.5h-359v-586h-204v922h-164v184zM788 780q91 0 152.5 38.5t87.5 103.5h-588v-142h348zM788 1239h-348v-133h584q-28 60 -88 96.5t-148 36.5z" />
    <glyph glyph-name="Euro" unicode="&#x20ac;" horiz-adv-x="1251" 
d="M338 676h604v-184h-575q35 -141 137 -229.5t244 -88.5q122 0 202 62.5t107 185.5h205q-22 -195 -164.5 -318.5t-349.5 -123.5q-121 0 -224 40t-176.5 110.5t-122.5 162.5t-71 199h-164v184h143v82h-143v184h164q22 105 70 196t120.5 162.5t176.5 112.5t227 41
q206 0 349 -123t165 -317h-205q-27 121 -108.5 183.5t-200.5 62.5q-144 0 -242.5 -87.5t-140.5 -230.5h577v-184h-604v-82z" />
    <glyph glyph-name="trademark" unicode="&#x2122;" horiz-adv-x="1652" 
d="M946 969h-59l-146 229v-317h-96v553h64l209 -334l210 334h62v-553h-96v317zM133 1434h440v-93h-172v-460h-96v460h-172v93z" />
    <glyph glyph-name="Omega" unicode="&#x2126;" horiz-adv-x="1495" 
d="M748 1300q-123 0 -228 -56.5t-169 -163t-64 -240.5q0 -101 39.5 -192t125 -163t203.5 -96v-389h-594v184h414v92q-179 64 -286 210t-107 354q0 133 48.5 251.5t134.5 205.5t211.5 137.5t271.5 50.5t271.5 -50.5t211 -137.5t134 -205.5t48.5 -251.5q0 -208 -107 -354
t-286 -210v-92h414v-184h-594v389q118 24 203.5 96t125 163t39.5 192q0 134 -64 240.5t-168.5 163t-227.5 56.5z" />
    <glyph glyph-name="partialdiff" unicode="&#x2202;" horiz-adv-x="1177" 
d="M922 840q0 115 -41.5 219t-123 172.5t-184.5 68.5q-65 0 -126.5 -24t-98.5 -68l-133 123q52 74 149.5 114t208.5 40q110 0 206 -46t172.5 -136t120.5 -238.5t44 -337.5q0 -129 -20.5 -237.5t-54.5 -184t-81.5 -134.5t-97 -94t-105 -58t-102 -31t-92.5 -8q-135 0 -251 70
t-183.5 188t-67.5 254q0 222 140.5 367t361.5 145q111 0 206.5 -46t152.5 -118zM256 492q0 -138 88.5 -233t218.5 -95t218.5 95t88.5 233t-88.5 232.5t-218.5 94.5t-218.5 -94.5t-88.5 -232.5z" />
    <glyph glyph-name="Delta" unicode="&#x2206;" horiz-adv-x="1331" 
d="M604 1434h123l594 -1434h-1311zM317 184h697l-348 871z" />
    <glyph glyph-name="product" unicode="&#x220f;" horiz-adv-x="1126" 
d="M420 0h-195v1249h-205v185h1086v-185h-205v-1249h-194v1249h-287v-1249z" />
    <glyph glyph-name="summation" unicode="&#x2211;" horiz-adv-x="1177" 
d="M0 133l512 584l-512 583v134h1096v-390h-195v205h-604l461 -532l-461 -533h635v205h194v-389h-1126v133z" />
    <glyph glyph-name="minus" unicode="&#x2212;" horiz-adv-x="1105" 
d="M1014 614v-184h-922v184h922z" />
    <glyph glyph-name="radical" unicode="&#x221a;" horiz-adv-x="1269" 
d="M1126 1434h195l-573 -1434h-144l-340 799h-264v184h389l287 -655z" />
    <glyph glyph-name="infinity" unicode="&#x221e;" horiz-adv-x="1597" 
d="M799 778q63 103 146 164.5t202 61.5q170 0 274.5 -108.5t104.5 -291.5t-104.5 -291t-274.5 -108q-63 0 -117 18t-96 51.5t-73.5 70.5t-61.5 85q-30 -48 -61.5 -85t-73.5 -70.5t-96 -51.5t-117 -18q-170 0 -274.5 108t-104.5 291t104.5 291.5t274.5 108.5q119 0 202 -61.5
t146 -164.5zM266 604q0 -99 50 -157t135 -58q77 0 133.5 56.5t111.5 158.5q-55 102 -111.5 158.5t-133.5 56.5q-85 0 -135 -58t-50 -157zM1331 604q0 100 -49.5 157.5t-134.5 57.5q-77 0 -134 -57t-112 -158q55 -101 112 -158t134 -57q85 0 134.5 57.5t49.5 157.5z" />
    <glyph glyph-name="integral" unicode="&#x222b;" horiz-adv-x="1075" 
d="M309 -51q30 104 55 321t50.5 445.5t56.5 349.5q42 166 123 256q120 133 317 133q75 0 154 -31l-61 -168q-54 15 -93 15q-107 0 -170 -72q-46 -54 -75 -164q-30 -104 -55.5 -321t-51.5 -445.5t-57 -349.5q-41 -162 -123 -256q-56 -62 -138.5 -97.5t-179.5 -35.5
q-74 0 -153 31l55 172q59 -19 98 -19q107 0 170 72q50 59 78 164z" />
    <glyph glyph-name="approxequal" unicode="&#x2248;" horiz-adv-x="1257" 
d="M571 678q-130 65 -204 65q-143 0 -205 -159l-101 137q60 102 136.5 154.5t189.5 52.5q64 0 122.5 -20.5t141.5 -61.5q6 -3 37.5 -19t43.5 -22t40 -18.5t44.5 -17.5t38 -10t38.5 -5q64 0 110 37.5t93 128.5l100 -138q-40 -101 -120.5 -157t-186.5 -56q-33 0 -67 6.5
t-70.5 20.5t-60.5 24.5t-64.5 30.5t-55.5 27zM571 309q-132 66 -204 66q-74 0 -125.5 -43.5t-79.5 -116.5l-101 137q60 102 136.5 154.5t189.5 52.5q64 0 122.5 -20.5t141.5 -61.5q6 -3 37.5 -19t43.5 -22t40 -18.5t44.5 -17.5t38 -10t38.5 -5q64 0 110 37.5t93 128.5
l100 -137q-40 -101 -120.5 -157t-186.5 -56q-33 0 -67 6t-71 20.5t-60 24.5t-64.5 30.5t-55.5 26.5z" />
    <glyph glyph-name="notequal" unicode="&#x2260;" horiz-adv-x="1105" 
d="M133 41l133 205h-174v184h293l121 184h-414v185h533l133 205h215l-133 -205h174v-185h-293l-121 -184h414v-184h-533l-133 -205h-215z" />
    <glyph glyph-name="lessequal" unicode="&#x2264;" horiz-adv-x="1116" 
d="M461 655l553 -215v-194l-922 348v123l922 327v-194zM1014 184v-184h-922v184h922z" />
    <glyph glyph-name="greaterequal" unicode="&#x2265;" horiz-adv-x="1116" 
d="M92 440l553 215l-553 195v194l922 -327v-123l-922 -348v194zM92 0v184h922v-184h-922z" />
    <glyph glyph-name="uni2295" unicode="&#x2295;" horiz-adv-x="1755" 
d="M780 791v364h158v-364h344v-154h-344v-340h-158v340h-340v154h340zM276 717q0 -117 45.5 -226t123 -190t186.5 -129.5t229 -48.5t229 48.5t186.5 129.5t123 190t45.5 226t-45.5 226t-123 190t-186.5 129.5t-229 48.5t-229 -48.5t-186.5 -129.5t-123 -190t-45.5 -226z
M1597 717q0 -151 -58 -287.5t-156.5 -235t-235 -156.5t-287.5 -58t-287.5 58t-235 156.5t-156.5 235t-58 287.5t58 287.5t156.5 235t235 156.5t287.5 58t287.5 -58t235 -156.5t156.5 -235t58 -287.5z" />
    <glyph glyph-name="uni2296" unicode="&#x2296;" horiz-adv-x="1755" 
d="M459 811h841v-154h-841v154zM877 1485q153 0 292.5 -59.5t240.5 -160.5t160.5 -240t59.5 -292t-59.5 -292.5t-160.5 -240.5t-240.5 -160.5t-292.5 -59.5t-292.5 59.5t-240.5 160.5t-161 240.5t-60 292.5t60 292t161 240t240.5 160.5t292.5 59.5zM877 102q167 0 310 86.5
t226.5 232t83.5 312.5q0 125 -49.5 240.5t-132.5 201t-198 136.5t-240 51t-240 -51t-198.5 -136.5t-133 -201t-49.5 -240.5q0 -167 83.5 -312.5t227 -232t310.5 -86.5z" />
    <glyph glyph-name="uni2297" unicode="&#x2297;" horiz-adv-x="1755" 
d="M987 735l277 -276l-109 -109l-276 277l-279 -277l-108 109l276 276l-276 279l108 108l279 -276l276 276l109 -108zM877 1485q153 0 292.5 -59.5t240.5 -160.5t160.5 -240t59.5 -292t-59.5 -292.5t-160.5 -240.5t-240.5 -160.5t-292.5 -59.5t-292.5 59.5t-240.5 160.5
t-161 240.5t-60 292.5t60 292t161 240t240.5 160.5t292.5 59.5zM877 102q167 0 310 86.5t226.5 232t83.5 312.5q0 125 -49.5 240.5t-132.5 201t-198 136.5t-240 51t-240 -51t-198.5 -136.5t-133 -201t-49.5 -240.5q0 -167 83.5 -312.5t227 -232t310.5 -86.5z" />
    <glyph glyph-name="uni2298" unicode="&#x2298;" horiz-adv-x="1755" 
d="M459 811h841v-154h-841v154zM879 922q-54 0 -94 39.5t-40 93.5q0 55 40 95t94 40q55 0 95 -40t40 -95q0 -54 -40 -93.5t-95 -39.5zM879 547q55 0 95 -39.5t40 -95.5q0 -54 -40 -93.5t-95 -39.5q-54 0 -94 39.5t-40 93.5q0 55 40 95t94 40zM877 1485q153 0 292.5 -59.5
t240.5 -160.5t160.5 -240t59.5 -292t-59.5 -292.5t-160.5 -240.5t-240.5 -160.5t-292.5 -59.5t-292.5 59.5t-240.5 160.5t-161 240.5t-60 292.5t60 292t161 240t240.5 160.5t292.5 59.5zM877 102q167 0 310 86.5t226.5 232t83.5 312.5q0 125 -49.5 240.5t-132.5 201
t-198 136.5t-240 51t-240 -51t-198.5 -136.5t-133 -201t-49.5 -240.5q0 -167 83.5 -312.5t227 -232t310.5 -86.5z" />
    <glyph glyph-name="uni24EA" unicode="&#x24ea;" 
d="M1192 717q0 -174 -84 -288t-238 -114q-155 0 -239 113t-84 289q0 112 34.5 201t109 144.5t179.5 55.5q153 0 237.5 -114t84.5 -287zM688 717q0 -114 48.5 -193.5t133.5 -79.5q82 0 131.5 81t49.5 192q0 110 -49 190t-132 80q-84 0 -133 -78.5t-49 -191.5zM287 717
q0 -157 76.5 -293.5t211.5 -218.5t295 -82q120 0 229 48.5t186.5 129.5t123 190t45.5 226t-45.5 226t-123 190t-186.5 129.5t-229 48.5q-160 0 -295 -82t-211.5 -218.5t-76.5 -293.5zM1608 717q0 -202 -98.5 -371.5t-268 -267.5t-371.5 -98q-151 0 -287.5 58t-235 156.5
t-156.5 235t-58 287.5t58 287.5t156.5 235t235 156.5t287.5 58q202 0 371.5 -98t268 -267.5t98.5 -371.5z" />
    <glyph glyph-name="uni24FF" unicode="&#x24ff;" 
d="M1192 717q0 173 -84.5 287t-237.5 114q-105 0 -179.5 -55.5t-109 -144.5t-34.5 -201q0 -176 84 -289t239 -113q154 0 238 114t84 288zM688 717q0 -114 48.5 -193.5t133.5 -79.5q82 0 131.5 81t49.5 192q0 110 -49 190t-132 80q-84 0 -133 -78.5t-49 -191.5zM1608 717
q0 -202 -98.5 -371.5t-268 -267.5t-371.5 -98q-151 0 -287.5 58t-235 156.5t-156.5 235t-58 287.5t58 287.5t156.5 235t235 156.5t287.5 58q202 0 371.5 -98t268 -267.5t98.5 -371.5z" />
    <glyph glyph-name="lozenge" unicode="&#x25ca;" horiz-adv-x="1126" 
d="M297 717l266 -461l266 461l-266 461zM1055 717l-430 -717h-123l-430 717l430 717h123z" />
    <glyph glyph-name="uni2639" unicode="&#x2639;" horiz-adv-x="1753" 
d="M862 567q95 0 155.5 -51.5t90.5 -132.5h149q-30 147 -136 240.5t-259 93.5t-259 -93.5t-136 -240.5h149q30 81 90.5 132.5t155.5 51.5zM479 913q0 -53 38.5 -92t92.5 -39q52 0 91.5 39t39.5 92q0 54 -39 92.5t-92 38.5q-54 0 -92.5 -38.5t-38.5 -92.5zM985 913
q0 -53 38.5 -92t92.5 -39q52 0 91.5 39t39.5 92q0 54 -39 92.5t-92 38.5q-54 0 -92.5 -38.5t-38.5 -92.5zM276 717q0 -117 45.5 -226t123 -190t186.5 -129.5t229 -48.5t229 48.5t186.5 129.5t123 190t45.5 226t-45.5 226t-123 190t-186.5 129.5t-229 48.5t-229 -48.5
t-186.5 -129.5t-123 -190t-45.5 -226zM1597 717q0 -151 -58 -287.5t-156.5 -235t-235 -156.5t-287.5 -58t-287.5 58t-235 156.5t-156.5 235t-58 287.5t58 287.5t156.5 235t235 156.5t287.5 58t287.5 -58t235 -156.5t156.5 -235t58 -287.5z" />
    <glyph glyph-name="uni263A" unicode="&#x263a;" horiz-adv-x="1753" 
d="M868 508q-95 0 -155 51.5t-90 132.5h-150q30 -147 136 -240.5t259 -93.5t259.5 93.5t136.5 240.5h-150q-30 -81 -90.5 -132.5t-155.5 -51.5zM485 913q0 -53 38.5 -92t92.5 -39q53 0 92.5 39.5t39.5 91.5q0 54 -39.5 92.5t-92.5 38.5q-54 0 -92.5 -38.5t-38.5 -92.5z
M991 913q0 -53 38.5 -92t92.5 -39q52 0 91.5 39t39.5 92q0 54 -39 92.5t-92 38.5q-54 0 -92.5 -38.5t-38.5 -92.5zM276 717q0 -117 45.5 -226t123 -190t186.5 -129.5t229 -48.5t229 48.5t186.5 129.5t123 190t45.5 226t-45.5 226t-123 190t-186.5 129.5t-229 48.5
t-229 -48.5t-186.5 -129.5t-123 -190t-45.5 -226zM1597 717q0 -151 -58 -287.5t-156.5 -235t-235 -156.5t-287.5 -58t-287.5 58t-235 156.5t-156.5 235t-58 287.5t58 287.5t156.5 235t235 156.5t287.5 58t287.5 -58t235 -156.5t156.5 -235t58 -287.5z" />
    <glyph glyph-name="spade" unicode="&#x2660;" horiz-adv-x="1462" 
d="M649 0v317q-45 -53 -110.5 -82.5t-141.5 -29.5q-140 0 -238 97.5t-98 236.5q0 68 27 129t74 112t104.5 101.5t123.5 109t127.5 122t119 152.5t94.5 189q37 -100 94.5 -189t119 -152.5t127.5 -122t123.5 -109t104.5 -101.5t74 -112t27 -129q0 -139 -98 -236.5t-238 -97.5
q-76 0 -141.5 29.5t-110.5 82.5v-317h-164z" />
    <glyph glyph-name="club" unicode="&#x2663;" horiz-adv-x="1462" 
d="M61 539q0 140 97.5 237.5t236.5 97.5q75 0 144 -32q-66 45 -104 118t-38 158q0 140 97.5 238t236.5 98t237.5 -98t98.5 -238q0 -85 -39 -158t-106 -118q69 32 143 32q140 0 238 -98t98 -237t-98 -236.5t-238 -97.5q-76 0 -141.5 29.5t-110.5 82.5v-317h-164v319
q-97 -114 -254 -114q-139 0 -236.5 97.5t-97.5 236.5z" />
    <glyph glyph-name="heart" unicode="&#x2665;" horiz-adv-x="1503" 
d="M752 1272q30 84 110 133t174 49q95 0 174 -37.5t128.5 -99t76.5 -138.5t27 -159q0 -54 -11 -107.5t-25.5 -95t-40.5 -86t-45 -72.5t-49.5 -63t-43 -48t-37.5 -38q-32 -32 -94 -91.5t-89 -88t-73.5 -82.5t-89 -117.5t-92.5 -150.5q-50 87 -92.5 150.5t-89 117t-74.5 83
t-89 88t-94 91.5q-25 25 -37.5 38t-43 48t-49.5 63t-45 72.5t-40.5 86t-25.5 95t-11 107.5q0 82 27 159t76.5 138.5t128.5 99t174 37.5q94 0 174.5 -49t110.5 -133z" />
    <glyph glyph-name="diamond" unicode="&#x2666;" horiz-adv-x="1273" 
d="M1147 717q-112 -123 -159 -176t-123 -148.5t-135 -191t-126 -221.5q-67 126 -126 221.5t-135 191t-123 148.5t-159 176q112 123 159 176t123 148.5t135 191t126 221.5q67 -126 126 -221.5t135 -191t123 -148.5t159 -176z" />
    <glyph glyph-name="uni2780" unicode="&#x2780;" 
d="M846 1110h119v-762h-144v522h-166v103q110 20 150.5 49t40.5 88zM287 717q0 -157 76.5 -293.5t211.5 -218.5t295 -82q120 0 229 48.5t186.5 129.5t123 190t45.5 226t-45.5 226t-123 190t-186.5 129.5t-229 48.5q-160 0 -295 -82t-211.5 -218.5t-76.5 -293.5zM1608 717
q0 -202 -98.5 -371.5t-268 -267.5t-371.5 -98q-151 0 -287.5 58t-235 156.5t-156.5 235t-58 287.5t58 287.5t156.5 235t235 156.5t287.5 58q202 0 371.5 -98t268 -267.5t98.5 -371.5z" />
    <glyph glyph-name="uni2781" unicode="&#x2781;" 
d="M997 641q-26 -17 -69.5 -42.5t-66 -39t-43.5 -33t-27 -37.5h360v-133h-547q0 158 98 250q18 20 75 56.5t109.5 69t95 77t42.5 84.5q0 49 -34 83t-89 34q-62 0 -102.5 -44.5t-40.5 -121.5h-142q0 134 78.5 214.5t206.5 80.5q121 0 191.5 -71t70.5 -175q0 -39 -11 -74.5
t-25.5 -59t-40.5 -48.5t-43 -37.5t-46 -32.5zM287 717q0 -157 76.5 -293.5t211.5 -218.5t295 -82q120 0 229 48.5t186.5 129.5t123 190t45.5 226t-45.5 226t-123 190t-186.5 129.5t-229 48.5q-160 0 -295 -82t-211.5 -218.5t-76.5 -293.5zM1608 717q0 -202 -98.5 -371.5
t-268 -267.5t-371.5 -98q-151 0 -287.5 58t-235 156.5t-156.5 235t-58 287.5t58 287.5t156.5 235t235 156.5t287.5 58q202 0 371.5 -98t268 -267.5t98.5 -371.5z" />
    <glyph glyph-name="uni2782" unicode="&#x2782;" 
d="M788 659v123h64q64 0 110 27t46 74t-34.5 77.5t-90.5 30.5q-61 0 -101.5 -40.5t-40.5 -102.5h-141q0 119 79 196.5t204 77.5q112 0 188 -64.5t76 -170.5t-92 -162q110 -57 110 -178q0 -95 -73.5 -161.5t-214.5 -66.5q-126 0 -209.5 82.5t-83.5 208.5h139q0 -63 46.5 -111
t107.5 -48q76 0 111.5 29.5t35.5 72.5q0 106 -172 106h-64zM287 717q0 -157 76.5 -293.5t211.5 -218.5t295 -82q120 0 229 48.5t186.5 129.5t123 190t45.5 226t-45.5 226t-123 190t-186.5 129.5t-229 48.5q-160 0 -295 -82t-211.5 -218.5t-76.5 -293.5zM1608 717
q0 -202 -98.5 -371.5t-268 -267.5t-371.5 -98q-151 0 -287.5 58t-235 156.5t-156.5 235t-58 287.5t58 287.5t156.5 235t235 156.5t287.5 58q202 0 371.5 -98t268 -267.5t98.5 -371.5z" />
    <glyph glyph-name="uni2783" unicode="&#x2783;" 
d="M1026 348h-141v180h-346v93l393 489h94v-453h117v-129h-117v-180zM885 838l-152 -181h152v181zM287 717q0 -157 76.5 -293.5t211.5 -218.5t295 -82q120 0 229 48.5t186.5 129.5t123 190t45.5 226t-45.5 226t-123 190t-186.5 129.5t-229 48.5q-160 0 -295 -82
t-211.5 -218.5t-76.5 -293.5zM1608 717q0 -202 -98.5 -371.5t-268 -267.5t-371.5 -98q-151 0 -287.5 58t-235 156.5t-156.5 235t-58 287.5t58 287.5t156.5 235t235 156.5t287.5 58q202 0 371.5 -98t268 -267.5t98.5 -371.5z" />
    <glyph glyph-name="uni2784" unicode="&#x2784;" 
d="M782 850l29 125h305v131h-409l-95 -434h131q52 65 134 65q55 0 96 -41.5t41 -101.5q0 -59 -38.5 -100t-96.5 -41q-50 0 -92 35t-52 87h-141q10 -110 94 -180.5t191 -70.5q119 0 198.5 78.5t79.5 191.5t-82.5 193.5t-197.5 80.5q-51 0 -95 -18zM287 717
q0 -157 76.5 -293.5t211.5 -218.5t295 -82q120 0 229 48.5t186.5 129.5t123 190t45.5 226t-45.5 226t-123 190t-186.5 129.5t-229 48.5q-160 0 -295 -82t-211.5 -218.5t-76.5 -293.5zM1608 717q0 -202 -98.5 -371.5t-268 -267.5t-371.5 -98q-151 0 -287.5 58t-235 156.5
t-156.5 235t-58 287.5t58 287.5t156.5 235t235 156.5t287.5 58q202 0 371.5 -98t268 -267.5t98.5 -371.5z" />
    <glyph glyph-name="uni2785" unicode="&#x2785;" 
d="M889 332q-35 0 -69.5 7.5t-77 33t-74 66t-53 114.5t-21.5 172q0 195 80 302.5t215 107.5q100 0 171 -63t91 -167h-145q-12 46 -43.5 73.5t-73.5 27.5q-61 0 -101.5 -46.5t-50.5 -138.5q65 56 152 56q114 0 193 -80t79 -195q0 -113 -79 -191.5t-193 -78.5zM756 602
q0 -58 39.5 -99.5t93.5 -41.5q56 0 95.5 41.5t39.5 99.5q0 61 -39.5 102t-95.5 41q-55 0 -94 -41t-39 -102zM287 717q0 -157 76.5 -293.5t211.5 -218.5t295 -82q120 0 229 48.5t186.5 129.5t123 190t45.5 226t-45.5 226t-123 190t-186.5 129.5t-229 48.5q-160 0 -295 -82
t-211.5 -218.5t-76.5 -293.5zM1608 717q0 -202 -98.5 -371.5t-268 -267.5t-371.5 -98q-151 0 -287.5 58t-235 156.5t-156.5 235t-58 287.5t58 287.5t156.5 235t235 156.5t287.5 58q202 0 371.5 -98t268 -267.5t98.5 -371.5z" />
    <glyph glyph-name="uni2786" unicode="&#x2786;" 
d="M1137 1079v-118q-126 -143 -187 -295.5t-61 -348.5h-150q0 195 64 361.5t162 269.5h-340v131h512zM287 717q0 -157 76.5 -293.5t211.5 -218.5t295 -82q120 0 229 48.5t186.5 129.5t123 190t45.5 226t-45.5 226t-123 190t-186.5 129.5t-229 48.5q-160 0 -295 -82
t-211.5 -218.5t-76.5 -293.5zM1608 717q0 -202 -98.5 -371.5t-268 -267.5t-371.5 -98q-151 0 -287.5 58t-235 156.5t-156.5 235t-58 287.5t58 287.5t156.5 235t235 156.5t287.5 58q202 0 371.5 -98t268 -267.5t98.5 -371.5z" />
    <glyph glyph-name="uni2787" unicode="&#x2787;" 
d="M870 317q-140 0 -212 71t-72 183q0 130 90 199q-47 63 -47 137q0 93 62.5 153t178.5 60q115 0 178.5 -60t63.5 -153q0 -81 -49 -139q92 -66 92 -197q0 -112 -73 -183t-212 -71zM870 446q61 0 101.5 35.5t40.5 89.5t-38 89.5t-104 35.5t-103.5 -35.5t-37.5 -89.5t40 -89.5
t101 -35.5zM770 907q0 -33 25 -55.5t75 -22.5t75.5 22.5t25.5 55.5q0 35 -26.5 58.5t-74.5 23.5t-74 -23.5t-26 -58.5zM287 717q0 -157 76.5 -293.5t211.5 -218.5t295 -82q120 0 229 48.5t186.5 129.5t123 190t45.5 226t-45.5 226t-123 190t-186.5 129.5t-229 48.5
q-160 0 -295 -82t-211.5 -218.5t-76.5 -293.5zM1608 717q0 -202 -98.5 -371.5t-268 -267.5t-371.5 -98q-151 0 -287.5 58t-235 156.5t-156.5 235t-58 287.5t58 287.5t156.5 235t235 156.5t287.5 58q202 0 371.5 -98t268 -267.5t98.5 -371.5z" />
    <glyph glyph-name="uni2788" unicode="&#x2788;" 
d="M870 1110q35 0 69.5 -8t77 -33.5t74 -67t53 -116.5t21.5 -174q0 -404 -295 -404q-101 0 -176 65.5t-92 174.5h143q13 -52 46.5 -80.5t78.5 -28.5q62 0 102 44t50 128q-66 -53 -152 -53q-117 0 -194.5 80t-77.5 197t76 196.5t196 79.5zM999 834q0 61 -37.5 103t-91.5 42
q-56 0 -94.5 -42t-38.5 -103t38.5 -102.5t94.5 -41.5q54 0 91.5 41.5t37.5 102.5zM287 717q0 -157 76.5 -293.5t211.5 -218.5t295 -82q120 0 229 48.5t186.5 129.5t123 190t45.5 226t-45.5 226t-123 190t-186.5 129.5t-229 48.5q-160 0 -295 -82t-211.5 -218.5t-76.5 -293.5
zM1608 717q0 -202 -98.5 -371.5t-268 -267.5t-371.5 -98q-151 0 -287.5 58t-235 156.5t-156.5 235t-58 287.5t58 287.5t156.5 235t235 156.5t287.5 58q202 0 371.5 -98t268 -267.5t98.5 -371.5z" />
    <glyph glyph-name="uni278A" unicode="&#x278a;" 
d="M965 1110h-119q0 -59 -40.5 -88t-150.5 -49v-103h166v-522h144v762zM1608 717q0 -202 -98.5 -371.5t-268 -267.5t-371.5 -98q-151 0 -287.5 58t-235 156.5t-156.5 235t-58 287.5t58 287.5t156.5 235t235 156.5t287.5 58q202 0 371.5 -98t268 -267.5t98.5 -371.5z" />
    <glyph glyph-name="uni278B" unicode="&#x278b;" 
d="M997 641q29 20 46 32.5t43 37.5t40.5 48.5t25.5 59t11 74.5q0 104 -70.5 175t-191.5 71q-128 0 -206.5 -80.5t-78.5 -214.5h142q0 77 40.5 121.5t102.5 44.5q55 0 89 -34t34 -83q0 -40 -42.5 -84.5t-95 -77t-109.5 -69t-75 -56.5q-98 -92 -98 -250h547v133h-360
q6 18 27 37.5t43.5 33t66 39t69.5 42.5zM1608 717q0 -202 -98.5 -371.5t-268 -267.5t-371.5 -98q-151 0 -287.5 58t-235 156.5t-156.5 235t-58 287.5t58 287.5t156.5 235t235 156.5t287.5 58q202 0 371.5 -98t268 -267.5t98.5 -371.5z" />
    <glyph glyph-name="uni278C" unicode="&#x278c;" 
d="M788 782v-123h64q172 0 172 -106q0 -43 -35.5 -72.5t-111.5 -29.5q-61 0 -107.5 48t-46.5 111h-139q0 -126 83.5 -208.5t209.5 -82.5q141 0 214.5 66.5t73.5 161.5q0 121 -110 178q92 56 92 162t-76 170.5t-188 64.5q-125 0 -204 -77.5t-79 -196.5h141q0 62 40.5 102.5
t101.5 40.5q56 0 90.5 -30.5t34.5 -77.5t-46 -74t-110 -27h-64zM1608 717q0 -202 -98.5 -371.5t-268 -267.5t-371.5 -98q-151 0 -287.5 58t-235 156.5t-156.5 235t-58 287.5t58 287.5t156.5 235t235 156.5t287.5 58q202 0 371.5 -98t268 -267.5t98.5 -371.5z" />
    <glyph glyph-name="uni278D" unicode="&#x278d;" 
d="M885 348h141v180h117v129h-117v453h-94l-393 -489v-93h346v-180zM733 657l152 181v-181h-152zM1608 717q0 -202 -98.5 -371.5t-268 -267.5t-371.5 -98q-151 0 -287.5 58t-235 156.5t-156.5 235t-58 287.5t58 287.5t156.5 235t235 156.5t287.5 58q202 0 371.5 -98
t268 -267.5t98.5 -371.5z" />
    <glyph glyph-name="uni278E" unicode="&#x278e;" 
d="M782 850l29 125h305v131h-409l-95 -434h131q52 65 134 65q55 0 96 -41.5t41 -101.5q0 -59 -38.5 -100t-96.5 -41q-50 0 -92 35t-52 87h-141q10 -110 94 -180.5t191 -70.5q119 0 198.5 78.5t79.5 191.5t-82.5 193.5t-197.5 80.5q-51 0 -95 -18zM1608 717
q0 -202 -98.5 -371.5t-268 -267.5t-371.5 -98q-151 0 -287.5 58t-235 156.5t-156.5 235t-58 287.5t58 287.5t156.5 235t235 156.5t287.5 58q202 0 371.5 -98t268 -267.5t98.5 -371.5z" />
    <glyph glyph-name="uni278F" unicode="&#x278f;" 
d="M889 332q114 0 193 78.5t79 191.5q0 115 -79 195t-193 80q-87 0 -152 -56q10 92 50.5 138.5t101.5 46.5q42 0 73.5 -27.5t43.5 -73.5h145q-20 104 -91 167t-171 63q-135 0 -215 -107.5t-80 -302.5q0 -98 21.5 -172t53 -114.5t74 -66t77 -33t69.5 -7.5zM756 602
q0 -58 39.5 -99.5t93.5 -41.5q56 0 95.5 41.5t39.5 99.5q0 61 -39.5 102t-95.5 41q-55 0 -94 -41t-39 -102zM1608 717q0 -202 -98.5 -371.5t-268 -267.5t-371.5 -98q-151 0 -287.5 58t-235 156.5t-156.5 235t-58 287.5t58 287.5t156.5 235t235 156.5t287.5 58
q202 0 371.5 -98t268 -267.5t98.5 -371.5z" />
    <glyph glyph-name="uni2790" unicode="&#x2790;" 
d="M1137 961v118h-512v-131h340q-98 -103 -162 -269.5t-64 -361.5h150q0 196 61 348.5t187 295.5zM1608 717q0 -202 -98.5 -371.5t-268 -267.5t-371.5 -98q-151 0 -287.5 58t-235 156.5t-156.5 235t-58 287.5t58 287.5t156.5 235t235 156.5t287.5 58q202 0 371.5 -98
t268 -267.5t98.5 -371.5z" />
    <glyph glyph-name="uni2791" unicode="&#x2791;" 
d="M870 317q139 0 212 71t73 183q0 131 -92 197q49 58 49 139q0 93 -63.5 153t-178.5 60q-116 0 -178.5 -60t-62.5 -153q0 -74 47 -137q-90 -69 -90 -199q0 -112 72 -183t212 -71zM870 446q61 0 101.5 35.5t40.5 89.5t-38 89.5t-104 35.5t-103.5 -35.5t-37.5 -89.5t40 -89.5
t101 -35.5zM770 907q0 -33 25 -55.5t75 -22.5t75.5 22.5t25.5 55.5q0 35 -26.5 58.5t-74.5 23.5t-74 -23.5t-26 -58.5zM1608 717q0 -202 -98.5 -371.5t-268 -267.5t-371.5 -98q-151 0 -287.5 58t-235 156.5t-156.5 235t-58 287.5t58 287.5t156.5 235t235 156.5t287.5 58
q202 0 371.5 -98t268 -267.5t98.5 -371.5z" />
    <glyph glyph-name="uni2792" unicode="&#x2792;" 
d="M870 1110q-120 0 -196 -79.5t-76 -196.5t77.5 -197t194.5 -80q86 0 152 53q-10 -84 -50 -128t-102 -44q-45 0 -78.5 28.5t-46.5 80.5h-143q17 -109 92 -174.5t176 -65.5q295 0 295 404q0 99 -21.5 174t-53 116.5t-74 67t-77 33.5t-69.5 8zM999 834q0 61 -37.5 103
t-91.5 42q-56 0 -94.5 -42t-38.5 -103t38.5 -102.5t94.5 -41.5q54 0 91.5 41.5t37.5 102.5zM1608 717q0 -202 -98.5 -371.5t-268 -267.5t-371.5 -98q-151 0 -287.5 58t-235 156.5t-156.5 235t-58 287.5t58 287.5t156.5 235t235 156.5t287.5 58q202 0 371.5 -98t268 -267.5
t98.5 -371.5z" />
    <glyph glyph-name="fi" unicode="&#xfb01;" horiz-adv-x="1265" 
d="M451 1004v-21h663v-983h-194v799h-469v-799h-195v799h-215v184h215v21q0 232 101.5 341t267.5 109q78 0 153 -33l-59 -168q-43 17 -74 17q-85 0 -139.5 -63t-54.5 -203zM868 1286q0 62 43 105t105 43q61 0 104 -43t43 -105t-42.5 -104.5t-104.5 -42.5t-105 43t-43 104z
" />
    <glyph glyph-name="fl" unicode="&#xfb02;" horiz-adv-x="1277" 
d="M451 1004v-21h469v451h194v-1434h-194v799h-469v-799h-195v799h-215v184h215v21q0 232 101.5 341t267.5 109q78 0 153 -33l-59 -168q-43 17 -74 17q-85 0 -139.5 -63t-54.5 -203z" />
    <glyph glyph-name="uniFFE6" unicode="&#xffe6;" horiz-adv-x="1904" 
d="M1683 831h191v-153h-232l-178 -678h-121l-241 678h-279l-239 -678h-121l-189 678h-243v153h200l-176 637h209l164 -637h256l219 637h121l219 -637h246l153 637h209zM469 678l70 -268l92 268h-162zM1296 678l93 -268l63 268h-156zM963 1073l-86 -242h172z" />
    <glyph glyph-name="arrowleft.001" horiz-adv-x="1484" 
d="M113 420v143l737 441v-226l-348 -194h870v-185h-870l348 -194v-225z" />
    <glyph glyph-name="arrowright.001" horiz-adv-x="1484" 
d="M1372 563v-143l-737 -440v225l348 194h-870v185h870l-348 194v226z" />
    <glyph glyph-name="parcelsymbol1" horiz-adv-x="1372" 
d="M174 0v154h1024v-154h-1024zM420 1454l225 -450h-123v-697h-205v697h-122zM952 1454l226 -450h-123v-697h-205v697h-123z" />
    <glyph glyph-name="parcelsymbol2" horiz-adv-x="1126" 
d="M502 1434h450v-502q0 -144 -91 -249.5t-228 -127.5v-401h319v-154h-778v154h322v401q-138 22 -230 127.5t-92 249.5v502h205l51 -62h-143l133 -174h-133l225 -246l-82 172h143l-133 195h144z" />
    <glyph glyph-name="parcelsymbol3" horiz-adv-x="1552" 
d="M776 1454q164 0 302.5 -80.5t219 -219t80.5 -302.5v-199h-22q0 77 -54 131t-131 54t-131.5 -54.5t-54.5 -130.5h-22q0 59 -35 107t-90 67v-587q0 -107 -76.5 -183.5t-183.5 -76.5t-183 76.5t-76 183.5h121q0 -57 40.5 -98.5t97.5 -41.5q58 0 98.5 41.5t40.5 98.5v587
q-56 -19 -90.5 -66.5t-34.5 -107.5h-23q0 76 -54.5 130.5t-131.5 54.5q-76 0 -130 -54t-54 -131h-25v199q0 123 47.5 234.5t128.5 192t192.5 128t233.5 47.5z" />
    <glyph glyph-name="parcelsymbol4" horiz-adv-x="1527" 
d="M508 625l217 -217v-408h-326v168l-225 229v391q0 31 21.5 52.5t50.5 21.5q30 0 50.5 -21.5t20.5 -52.5v-317l97 -96h139l-147 145q-21 21 -21 53q0 30 21 51t51 21q34 0 51 -20zM1282 862q29 0 50.5 -21.5t21.5 -52.5v-391l-228 -229v-168h-327v408l217 217q20 20 53 20
q28 0 50 -21t22 -51q0 -32 -21 -53l-147 -145h137l98 96v317q0 31 21.5 52.5t52.5 21.5zM735 561l-327 234v405l327 -233v-406zM788 561v406l326 233v-405zM762 1008l-328 233l354 213l302 -213z" />
    <glyph glyph-name="gid5094" horiz-adv-x="1755" 
d="M799 1176v-365h-340v-154h340v-340h157v340h344v154h-344v365h-157zM877 1485q153 0 292.5 -59.5t240.5 -160.5t160.5 -240t59.5 -292t-59.5 -292.5t-160.5 -240.5t-240.5 -160.5t-292.5 -59.5t-292.5 59.5t-240.5 160.5t-161 240.5t-60 292.5t60 292t161 240
t240.5 160.5t292.5 59.5z" />
    <glyph glyph-name="gid5095" horiz-adv-x="1755" 
d="M1300 811h-841v-154h841v154zM877 1485q153 0 292.5 -59.5t240.5 -160.5t160.5 -240t59.5 -292t-59.5 -292.5t-160.5 -240.5t-240.5 -160.5t-292.5 -59.5t-292.5 59.5t-240.5 160.5t-161 240.5t-60 292.5t60 292t161 240t240.5 160.5t292.5 59.5z" />
    <glyph glyph-name="gid5096" horiz-adv-x="1755" 
d="M1264 459l-277 276l277 279l-109 108l-276 -276l-279 276l-108 -108l276 -279l-276 -276l108 -109l279 277l276 -277zM877 1485q153 0 292.5 -59.5t240.5 -160.5t160.5 -240t59.5 -292t-59.5 -292.5t-160.5 -240.5t-240.5 -160.5t-292.5 -59.5t-292.5 59.5t-240.5 160.5
t-161 240.5t-60 292.5t60 292t161 240t240.5 160.5t292.5 59.5z" />
    <glyph glyph-name="gid5097" horiz-adv-x="1755" 
d="M1300 811h-841v-154h841v154zM879 922q55 0 95 39.5t40 93.5q0 55 -40 95t-95 40q-54 0 -94 -40t-40 -95q0 -54 40 -93.5t94 -39.5zM879 547q-54 0 -94 -40t-40 -95q0 -54 40 -93.5t94 -39.5q55 0 95 39.5t40 93.5q0 56 -40 95.5t-95 39.5zM877 1485q153 0 292.5 -59.5
t240.5 -160.5t160.5 -240t59.5 -292t-59.5 -292.5t-160.5 -240.5t-240.5 -160.5t-292.5 -59.5t-292.5 59.5t-240.5 160.5t-161 240.5t-60 292.5t60 292t161 240t240.5 160.5t292.5 59.5z" />
    </font>
</defs>
</svg>
